<?xml version="1.0" encoding="utf-8"?>
<!-- Generator: Adobe Illustrator 16.0.0, SVG Export Plug-In . SVG Version: 6.00 Build 0)  -->
<!DOCTYPE svg PUBLIC "-//W3C//DTD SVG 1.1//EN" "http://www.w3.org/Graphics/SVG/1.1/DTD/svg11.dtd">
<svg version="1.1" id="Layer_1" xmlns="http://www.w3.org/2000/svg" xmlns:xlink="http://www.w3.org/1999/xlink" x="0px" y="0px"
	 width="307px" height="40px" viewBox="0 0 307 40" enable-background="new 0 0 307 40" xml:space="preserve">
<g>
	<polygon fill="#6E6C6C" points="62.2,33.361 34.5,33.361 34.5,5.662 62.2,5.662 62.2,12.882 61.2,12.882 61.2,6.662 35.5,6.662 
		35.5,32.361 61.2,32.361 61.2,26.701 41.16,26.701 41.16,22.842 42.16,22.842 42.16,25.701 62.2,25.701 	"/>
</g>
<g>
	<polygon fill="#6E6C6C" points="42.16,16.182 41.16,16.182 41.16,12.382 61.7,12.382 61.7,13.382 42.16,13.382 	"/>
</g>
<g>
	<rect x="47.88" y="16.182" fill="#6E6C6C" width="1" height="6.66"/>
</g>
<g>
	<rect x="41.66" y="15.682" fill="#6E6C6C" width="6.72" height="1"/>
</g>
<g>
	<rect x="41.66" y="22.342" fill="#6E6C6C" width="6.72" height="1"/>
</g>
<g>
	<polygon fill="#6E6C6C" points="92.26,13.382 81.74,13.382 81.74,12.382 91.26,12.382 91.26,6.662 65.06,6.662 65.06,5.662 
		92.26,5.662 	"/>
</g>
<g>
	<rect x="74.58" y="12.882" fill="#6E6C6C" width="1" height="19.979"/>
</g>
<g>
	<rect x="81.24" y="12.882" fill="#6E6C6C" width="1" height="19.979"/>
</g>
<g>
	<polygon fill="#6E6C6C" points="75.08,13.382 64.56,13.382 64.56,6.162 65.56,6.162 65.56,12.382 75.08,12.382 	"/>
</g>
<g>
	<rect x="75.08" y="32.361" fill="#6E6C6C" width="6.66" height="1"/>
</g>
<g>
	<polygon fill="#6E6C6C" points="148.235,13.328 135.021,6.662 121.76,6.662 121.76,5.662 135.259,5.662 148.685,12.436 	"/>
</g>
<g>
	
		<rect x="133.102" y="14.422" transform="matrix(0.8957 0.4446 -0.4446 0.8957 20.9926 -59.663)" fill="#6E6C6C" width="9.177" height="1"/>
</g>
<g>
	<polygon fill="#6E6C6C" points="135.364,33.309 134.917,32.414 147.96,25.893 147.96,12.882 148.96,12.882 148.96,26.51 	"/>
</g>
<g>
	
		<rect x="137.19" y="19.53" transform="matrix(0.4503 0.8929 -0.8929 0.4503 97.229 -109.6736)" fill="#6E6C6C" width="1" height="9.203"/>
</g>
<g>
	<polygon fill="#6E6C6C" points="135.14,33.361 121.26,33.361 121.26,6.162 122.26,6.162 122.26,32.361 135.14,32.361 	"/>
</g>
<g>
	<polygon fill="#6E6C6C" points="133.58,26.701 127.98,26.701 127.98,12.882 128.98,12.882 128.98,25.701 133.58,25.701 	"/>
</g>
<g>
	<rect x="128.48" y="12.382" fill="#6E6C6C" width="5.1" height="1"/>
</g>
<g>
	<rect x="141.3" y="16.962" fill="#6E6C6C" width="1" height="5.1"/>
</g>
<g>
	<polygon fill="#6E6C6C" points="179.02,33.361 151.32,33.361 151.32,5.662 179.02,5.662 179.02,12.882 178.02,12.882 178.02,6.662 
		152.32,6.662 152.32,32.361 178.02,32.361 178.02,26.701 157.98,26.701 157.98,22.842 158.98,22.842 158.98,25.701 179.02,25.701 	
		"/>
</g>
<g>
	<polygon fill="#6E6C6C" points="158.98,16.182 157.98,16.182 157.98,12.382 178.52,12.382 178.52,13.382 158.98,13.382 	"/>
</g>
<g>
	<rect x="164.641" y="16.182" fill="#6E6C6C" width="1" height="6.66"/>
</g>
<g>
	<rect x="158.48" y="15.682" fill="#6E6C6C" width="6.66" height="1"/>
</g>
<g>
	<rect x="158.48" y="22.342" fill="#6E6C6C" width="6.66" height="1"/>
</g>
<g>
	<polygon fill="#6E6C6C" points="182.38,19.542 181.38,19.542 181.38,5.662 209.08,5.662 209.08,12.882 208.08,12.882 208.08,6.662 
		182.38,6.662 	"/>
</g>
<g>
	<rect x="188.54" y="25.701" fill="#6E6C6C" width="13.319" height="1"/>
</g>
<g>
	<rect x="188.54" y="22.342" fill="#6E6C6C" width="13.319" height="1"/>
</g>
<g>
	<polygon fill="#6E6C6C" points="209.08,33.361 181.88,33.361 181.88,32.361 208.08,32.361 208.08,16.182 209.08,16.182 	"/>
</g>
<g>
	<rect x="188.54" y="12.382" fill="#6E6C6C" width="20.04" height="1"/>
</g>
<g>
	<rect x="188.04" y="12.882" fill="#6E6C6C" width="1" height="3.3"/>
</g>
<g>
	<rect x="181.38" y="19.542" fill="#6E6C6C" width="1" height="3.3"/>
</g>
<g>
	<rect x="181.88" y="25.701" fill="#6E6C6C" width="6.66" height="1"/>
</g>
<g>
	<rect x="181.88" y="22.342" fill="#6E6C6C" width="6.66" height="1"/>
</g>
<g>
	<rect x="188.54" y="15.682" fill="#6E6C6C" width="20.04" height="1"/>
</g>
<g>
	<rect x="201.36" y="22.842" fill="#6E6C6C" width="1" height="3.359"/>
</g>
<g>
	<rect x="181.38" y="26.201" fill="#6E6C6C" width="1" height="6.66"/>
</g>
<g>
	<path fill="#6E6C6C" d="M239.08,33.361h-27.7v-7.66H221.4V13.382H211.38v-7.72h27.7v7.72h-10.02v12.319h10.02V33.361z
		 M212.38,32.361h25.7v-5.66h-10.02V12.382h10.02v-5.72h-25.7v5.72H222.4v14.319H212.38V32.361z"/>
</g>
<g>
	<polygon fill="#6E6C6C" points="261.98,33.361 241.439,33.361 241.439,5.662 269.141,5.662 269.141,16.682 261.98,16.682 
		261.98,15.682 268.141,15.682 268.141,6.662 242.439,6.662 242.439,32.361 261.98,32.361 	"/>
</g>
<g>
	<rect x="255.26" y="19.042" fill="#6E6C6C" width="13.26" height="1"/>
</g>
<g>
	<polygon fill="#6E6C6C" points="255.26,26.701 248.1,26.701 248.1,12.382 262.48,12.382 262.48,16.182 261.48,16.182 
		261.48,13.382 249.1,13.382 249.1,25.701 255.26,25.701 	"/>
</g>
<g>
	<polygon fill="#6E6C6C" points="261.98,26.701 254.76,26.701 254.76,19.542 255.76,19.542 255.76,25.701 261.98,25.701 	"/>
</g>
<g>
	<polygon fill="#6E6C6C" points="268.52,40.082 261.48,40.082 261.48,32.861 262.48,32.861 262.48,39.082 268.52,39.082 	"/>
</g>
<g>
	<rect x="268.02" y="19.542" fill="#6E6C6C" width="1" height="20.041"/>
</g>
<g>
	<rect x="271.439" y="6.162" fill="#6E6C6C" width="1" height="26.7"/>
</g>
<g>
	<polygon fill="#6E6C6C" points="292.48,25.575 279.744,6.438 280.576,5.885 291.48,22.268 291.48,6.162 292.48,6.162 	"/>
</g>
<g>
	<polygon fill="#6E6C6C" points="299.141,33.361 290.213,33.361 278.244,15.378 279.076,14.825 290.748,32.361 298.141,32.361 
		298.141,6.162 299.141,6.162 	"/>
</g>
<g>
	<rect x="271.939" y="32.361" fill="#6E6C6C" width="6.721" height="1"/>
</g>
<g>
	<rect x="278.16" y="15.102" fill="#6E6C6C" width="1" height="17.76"/>
</g>
<g>
	<rect x="291.98" y="5.662" fill="#6E6C6C" width="6.66" height="1"/>
</g>
<g>
	<rect x="271.939" y="5.662" fill="#6E6C6C" width="8.221" height="1"/>
</g>
<g>
	<polygon fill="#6E6C6C" points="5.5,19.542 4.5,19.542 4.5,5.662 32.2,5.662 32.2,12.882 31.2,12.882 31.2,6.662 5.5,6.662 	"/>
</g>
<g>
	<rect x="11.66" y="25.701" fill="#6E6C6C" width="13.32" height="1"/>
</g>
<g>
	<rect x="11.66" y="22.342" fill="#6E6C6C" width="13.32" height="1"/>
</g>
<g>
	<polygon fill="#6E6C6C" points="32.2,33.361 5,33.361 5,32.361 31.2,32.361 31.2,16.182 32.2,16.182 	"/>
</g>
<g>
	<rect x="11.66" y="12.382" fill="#6E6C6C" width="20.04" height="1"/>
</g>
<g>
	<rect x="11.16" y="12.882" fill="#6E6C6C" width="1" height="3.3"/>
</g>
<g>
	<rect x="4.5" y="19.542" fill="#6E6C6C" width="1" height="3.3"/>
</g>
<g>
	<rect x="5" y="25.701" fill="#6E6C6C" width="6.66" height="1"/>
</g>
<g>
	<rect x="5" y="22.342" fill="#6E6C6C" width="6.66" height="1"/>
</g>
<g>
	<rect x="11.66" y="15.682" fill="#6E6C6C" width="20.04" height="1"/>
</g>
<g>
	<rect x="24.48" y="22.842" fill="#6E6C6C" width="1" height="3.359"/>
</g>
<g>
	<rect x="4.5" y="26.201" fill="#6E6C6C" width="1" height="6.66"/>
</g>
</svg>
