<?xml version="1.0" encoding="utf-8"?>
<!-- Generator: Adobe Illustrator 16.0.0, SVG Export Plug-In . SVG Version: 6.00 Build 0)  -->
<!DOCTYPE svg PUBLIC "-//W3C//DTD SVG 1.1//EN" "http://www.w3.org/Graphics/SVG/1.1/DTD/svg11.dtd">
<svg version="1.1" id="Layer_1" xmlns="http://www.w3.org/2000/svg" xmlns:xlink="http://www.w3.org/1999/xlink" x="0px" y="0px"
	 width="307px" height="40px" viewBox="0 0 307 40" enable-background="new 0 0 307 40" xml:space="preserve">
<g>
	<polyline fill="#6E6C6C" points="61.7,12.882 61.7,6.162 35,6.162 35,32.861 61.7,32.861 61.7,26.201 41.66,26.201 41.66,22.842 	
		"/>
	<polygon fill="#6D6B6B" points="61.95,33.111 34.75,33.111 34.75,5.912 61.95,5.912 61.95,12.882 61.45,12.882 61.45,6.412 
		35.25,6.412 35.25,32.611 61.45,32.611 61.45,26.451 41.41,26.451 41.41,22.842 41.91,22.842 41.91,25.951 61.95,25.951 	"/>
</g>
<g>
	<polyline fill="#6E6C6C" points="41.66,16.182 41.66,12.882 61.7,12.882 	"/>
	<polygon fill="#6D6B6B" points="41.91,16.182 41.41,16.182 41.41,12.632 61.7,12.632 61.7,13.132 41.91,13.132 	"/>
</g>
<g>
	<path fill="#6E6C6C" d="M48.38,22.842v-6.66V22.842z"/>
	<rect x="48.13" y="16.182" fill="#6D6B6B" width="0.5" height="6.66"/>
</g>
<g>
	<path fill="#6E6C6C" d="M41.66,16.182h6.72H41.66z"/>
	<rect x="41.66" y="15.932" fill="#6D6B6B" width="6.72" height="0.5"/>
</g>
<g>
	<path fill="#6E6C6C" d="M41.66,22.842h6.72H41.66z"/>
	<rect x="41.66" y="22.592" fill="#6D6B6B" width="6.72" height="0.5"/>
</g>
<g>
	<polyline fill="#6E6C6C" points="65.06,6.162 91.76,6.162 91.76,12.882 81.74,12.882 	"/>
	<polygon fill="#6D6B6B" points="92.01,13.132 81.74,13.132 81.74,12.632 91.51,12.632 91.51,6.412 65.06,6.412 65.06,5.912 
		92.01,5.912 	"/>
</g>
<g>
	<path fill="#6E6C6C" d="M75.081,32.861V12.882V32.861z"/>
	<rect x="74.831" y="12.882" fill="#6D6B6B" width="0.5" height="19.979"/>
</g>
<g>
	<path fill="#6E6C6C" d="M81.74,32.861V12.882V32.861z"/>
	<rect x="81.49" y="12.882" fill="#6D6B6B" width="0.5" height="19.979"/>
</g>
<g>
	<polyline fill="#6E6C6C" points="75.08,12.882 65.06,12.882 65.06,6.162 	"/>
	<polygon fill="#6D6B6B" points="75.08,13.132 64.81,13.132 64.81,6.162 65.31,6.162 65.31,12.632 75.08,12.632 	"/>
</g>
<g>
	<path fill="#6E6C6C" d="M75.081,32.861h6.66H75.081z"/>
	<rect x="75.081" y="32.611" fill="#6D6B6B" width="6.66" height="0.5"/>
</g>
<g>
	<polyline fill="#6E6C6C" points="121.76,6.162 135.14,6.162 148.46,12.882 	"/>
	<polygon fill="#6D6B6B" points="148.347,13.105 135.081,6.412 121.76,6.412 121.76,5.912 135.253,5.938 148.573,12.659 	"/>
</g>
<g>
	<line fill="#6E6C6C" x1="133.58" y1="12.882" x2="141.8" y2="16.962"/>
	
		<rect x="133.102" y="14.672" transform="matrix(0.8957 0.4446 -0.4446 0.8957 20.9926 -59.663)" fill="#6D6B6B" width="9.177" height="0.5"/>
</g>
<g>
	<polyline fill="#6E6C6C" points="148.46,12.882 148.46,26.201 135.14,32.861 	"/>
	<polygon fill="#6D6B6B" points="135.252,33.085 135.028,32.638 148.21,26.047 148.21,12.882 148.71,12.882 148.71,26.355 	"/>
</g>
<g>
	<line fill="#6E6C6C" x1="141.8" y1="22.062" x2="133.58" y2="26.201"/>
	
		<rect x="137.44" y="19.53" transform="matrix(0.4488 0.8936 -0.8936 0.4488 97.4636 -109.7439)" fill="#6D6B6B" width="0.5" height="9.203"/>
</g>
<g>
	<polyline fill="#6E6C6C" points="135.14,32.861 121.76,32.861 121.76,6.162 	"/>
	<polygon fill="#6D6B6B" points="135.14,33.111 121.51,33.111 121.51,6.162 122.01,6.162 122.01,32.611 135.14,32.611 	"/>
</g>
<g>
	<polyline fill="#6E6C6C" points="128.48,12.882 128.48,26.201 133.58,26.201 	"/>
	<polygon fill="#6D6B6B" points="133.58,26.451 128.23,26.451 128.23,12.882 128.73,12.882 128.73,25.951 133.58,25.951 	"/>
</g>
<g>
	<path fill="#6E6C6C" d="M128.48,12.882h5.1H128.48z"/>
	<rect x="128.48" y="12.632" fill="#6D6B6B" width="5.1" height="0.5"/>
</g>
<g>
	<path fill="#6E6C6C" d="M141.8,22.062v-5.1V22.062z"/>
	<rect x="141.55" y="16.962" fill="#6D6B6B" width="0.5" height="5.1"/>
</g>
<g>
	<polyline fill="#6E6C6C" points="178.52,12.882 178.52,6.162 151.82,6.162 151.82,32.861 178.52,32.861 178.52,26.201 
		158.48,26.201 158.48,22.842 	"/>
	<polygon fill="#6D6B6B" points="178.77,33.111 151.57,33.111 151.57,5.912 178.77,5.912 178.77,12.882 178.27,12.882 178.27,6.412 
		152.07,6.412 152.07,32.611 178.27,32.611 178.27,26.451 158.23,26.451 158.23,22.842 158.73,22.842 158.73,25.951 178.77,25.951 	
		"/>
</g>
<g>
	<polyline fill="#6E6C6C" points="158.48,16.182 158.48,12.882 178.52,12.882 	"/>
	<polygon fill="#6D6B6B" points="158.73,16.182 158.23,16.182 158.23,12.632 178.52,12.632 178.52,13.132 158.73,13.132 	"/>
</g>
<g>
	<path fill="#6E6C6C" d="M165.14,22.842v-6.66V22.842z"/>
	<rect x="164.89" y="16.182" fill="#6D6B6B" width="0.5" height="6.66"/>
</g>
<g>
	<path fill="#6E6C6C" d="M158.48,16.182h6.659H158.48z"/>
	<rect x="158.48" y="15.932" fill="#6D6B6B" width="6.659" height="0.5"/>
</g>
<g>
	<path fill="#6E6C6C" d="M158.48,22.842h6.659H158.48z"/>
	<rect x="158.48" y="22.592" fill="#6D6B6B" width="6.659" height="0.5"/>
</g>
<g>
	<polyline fill="#6E6C6C" points="208.58,12.882 208.58,6.162 181.88,6.162 181.88,19.542 	"/>
	<polygon fill="#6D6B6B" points="182.13,19.542 181.63,19.542 181.63,5.912 208.83,5.912 208.83,12.882 208.33,12.882 208.33,6.412 
		182.13,6.412 	"/>
</g>
<g>
	<path fill="#6E6C6C" d="M188.54,26.201h13.319H188.54z"/>
	<rect x="188.54" y="25.951" fill="#6D6B6B" width="13.319" height="0.5"/>
</g>
<g>
	<path fill="#6E6C6C" d="M188.54,22.842h13.319H188.54z"/>
	<rect x="188.54" y="22.592" fill="#6D6B6B" width="13.319" height="0.5"/>
</g>
<g>
	<polyline fill="#6E6C6C" points="181.88,32.861 208.58,32.861 208.58,16.182 	"/>
	<polygon fill="#6D6B6B" points="208.83,33.111 181.88,33.111 181.88,32.611 208.33,32.611 208.33,16.182 208.83,16.182 	"/>
</g>
<g>
	<path fill="#6E6C6C" d="M188.54,12.882h20.04H188.54z"/>
	<rect x="188.54" y="12.632" fill="#6D6B6B" width="20.04" height="0.5"/>
</g>
<g>
	<path fill="#6E6C6C" d="M188.54,16.182v-3.3V16.182z"/>
	<rect x="188.29" y="12.882" fill="#6D6B6B" width="0.5" height="3.3"/>
</g>
<g>
	<path fill="#6E6C6C" d="M181.88,22.842v-3.3V22.842z"/>
	<rect x="181.63" y="19.542" fill="#6D6B6B" width="0.5" height="3.3"/>
</g>
<g>
	<path fill="#6E6C6C" d="M181.88,26.201h6.659H181.88z"/>
	<rect x="181.88" y="25.951" fill="#6D6B6B" width="6.659" height="0.5"/>
</g>
<g>
	<path fill="#6E6C6C" d="M181.88,22.842h6.659H181.88z"/>
	<rect x="181.88" y="22.592" fill="#6D6B6B" width="6.659" height="0.5"/>
</g>
<g>
	<path fill="#6E6C6C" d="M188.54,16.182h20.04H188.54z"/>
	<rect x="188.54" y="15.932" fill="#6D6B6B" width="20.04" height="0.5"/>
</g>
<g>
	<path fill="#6E6C6C" d="M201.859,26.201v-3.359V26.201z"/>
	<rect x="201.609" y="22.842" fill="#6D6B6B" width="0.5" height="3.359"/>
</g>
<g>
	<path fill="#6E6C6C" d="M181.88,32.861v-6.66V32.861z"/>
	<rect x="181.63" y="26.201" fill="#6D6B6B" width="0.5" height="6.66"/>
</g>
<g>
	<polygon fill="#6E6C6C" points="211.88,6.162 211.88,12.882 221.9,12.882 221.9,26.201 211.88,26.201 211.88,32.861 238.58,32.861 
		238.58,26.201 228.561,26.201 228.561,12.882 238.58,12.882 238.58,6.162 	"/>
	<path fill="#6D6B6B" d="M238.83,33.111h-27.2v-7.16h10.021V13.132H211.63v-7.22h27.2v7.22h-10.02v12.819h10.02V33.111z
		 M212.13,32.611h26.2v-6.16h-10.02V12.632h10.02v-6.22h-26.2v6.22h10.021v13.819H212.13V32.611z"/>
</g>
<g>
	<polyline fill="#6E6C6C" points="261.98,16.182 268.641,16.182 268.641,6.162 241.939,6.162 241.939,32.861 261.98,32.861 	"/>
	<polygon fill="#6D6B6B" points="261.98,33.111 241.689,33.111 241.689,5.912 268.891,5.912 268.891,16.432 261.98,16.432 
		261.98,15.932 268.391,15.932 268.391,6.412 242.189,6.412 242.189,32.611 261.98,32.611 	"/>
</g>
<g>
	<path fill="#6E6C6C" d="M255.26,19.542h13.261H255.26z"/>
	<rect x="255.26" y="19.292" fill="#6D6B6B" width="13.261" height="0.5"/>
</g>
<g>
	<polyline fill="#6E6C6C" points="255.26,26.201 248.6,26.201 248.6,12.882 261.98,12.882 261.98,16.182 	"/>
	<polygon fill="#6D6B6B" points="255.26,26.451 248.35,26.451 248.35,12.632 262.23,12.632 262.23,16.182 261.73,16.182 
		261.73,13.132 248.85,13.132 248.85,25.951 255.26,25.951 	"/>
</g>
<g>
	<polyline fill="#6E6C6C" points="255.26,19.542 255.26,26.201 261.98,26.201 	"/>
	<polygon fill="#6D6B6B" points="261.98,26.451 255.01,26.451 255.01,19.542 255.51,19.542 255.51,25.951 261.98,25.951 	"/>
</g>
<g>
	<polyline fill="#6E6C6C" points="268.52,39.582 261.98,39.582 261.98,32.861 	"/>
	<polygon fill="#6D6B6B" points="268.52,39.832 261.73,39.832 261.73,32.861 262.23,32.861 262.23,39.332 268.52,39.332 	"/>
</g>
<g>
	<path fill="#6E6C6C" d="M268.52,39.582v-20.04V39.582z"/>
	<rect x="268.27" y="19.542" fill="#6D6B6B" width="0.5" height="20.04"/>
</g>
<g>
	<path fill="#6E6C6C" d="M271.939,32.861V6.162V32.861z"/>
	<rect x="271.689" y="6.162" fill="#6D6B6B" width="0.5" height="26.699"/>
</g>
<g>
	<polyline fill="#6E6C6C" points="280.16,6.162 291.98,23.922 291.98,6.162 	"/>
	<polygon fill="#6D6B6B" points="292.23,24.749 279.952,6.3 280.368,6.023 291.73,23.095 291.73,6.162 292.23,6.162 	"/>
</g>
<g>
	<polyline fill="#6E6C6C" points="298.641,6.162 298.641,32.861 290.48,32.861 278.66,15.102 	"/>
	<polygon fill="#6D6B6B" points="298.891,33.111 290.347,33.111 278.452,15.24 278.868,14.963 290.614,32.611 298.391,32.611 
		298.391,6.162 298.891,6.162 	"/>
</g>
<g>
	<path fill="#6E6C6C" d="M271.939,32.861h6.721H271.939z"/>
	<rect x="271.939" y="32.611" fill="#6D6B6B" width="6.721" height="0.5"/>
</g>
<g>
	<path fill="#6E6C6C" d="M278.66,32.861V15.102V32.861z"/>
	<rect x="278.41" y="15.102" fill="#6D6B6B" width="0.5" height="17.759"/>
</g>
<g>
	<path fill="#6E6C6C" d="M291.98,6.162h6.66H291.98z"/>
	<rect x="291.98" y="5.912" fill="#6D6B6B" width="6.66" height="0.5"/>
</g>
<g>
	<path fill="#6E6C6C" d="M271.939,6.162h8.221H271.939z"/>
	<rect x="271.939" y="5.912" fill="#6D6B6B" width="8.221" height="0.5"/>
</g>
<g>
	<polyline fill="#6E6C6C" points="31.7,12.882 31.7,6.162 5,6.162 5,19.542 	"/>
	<polygon fill="#6D6B6B" points="5.25,19.542 4.75,19.542 4.75,5.912 31.95,5.912 31.95,12.882 31.45,12.882 31.45,6.412 
		5.25,6.412 	"/>
</g>
<g>
	<path fill="#6E6C6C" d="M11.66,26.201h13.32H11.66z"/>
	<rect x="11.66" y="25.951" fill="#6D6B6B" width="13.32" height="0.5"/>
</g>
<g>
	<path fill="#6E6C6C" d="M11.66,22.842h13.32H11.66z"/>
	<rect x="11.66" y="22.592" fill="#6D6B6B" width="13.32" height="0.5"/>
</g>
<g>
	<polyline fill="#6E6C6C" points="5,32.861 31.7,32.861 31.7,16.182 	"/>
	<polygon fill="#6D6B6B" points="31.95,33.111 5,33.111 5,32.611 31.45,32.611 31.45,16.182 31.95,16.182 	"/>
</g>
<g>
	<path fill="#6E6C6C" d="M11.66,12.882H31.7H11.66z"/>
	<rect x="11.66" y="12.632" fill="#6D6B6B" width="20.04" height="0.5"/>
</g>
<g>
	<path fill="#6E6C6C" d="M11.66,16.182v-3.3V16.182z"/>
	<rect x="11.41" y="12.882" fill="#6D6B6B" width="0.5" height="3.3"/>
</g>
<g>
	<path fill="#6E6C6C" d="M5,22.842v-3.3V22.842z"/>
	<rect x="4.75" y="19.542" fill="#6D6B6B" width="0.5" height="3.3"/>
</g>
<g>
	<path fill="#6E6C6C" d="M5,26.201h6.66H5z"/>
	<rect x="5" y="25.951" fill="#6D6B6B" width="6.66" height="0.5"/>
</g>
<g>
	<path fill="#6E6C6C" d="M5,22.842h6.66H5z"/>
	<rect x="5" y="22.592" fill="#6D6B6B" width="6.66" height="0.5"/>
</g>
<g>
	<path fill="#6E6C6C" d="M11.66,16.182H31.7H11.66z"/>
	<rect x="11.66" y="15.932" fill="#6D6B6B" width="20.04" height="0.5"/>
</g>
<g>
	<path fill="#6E6C6C" d="M24.98,26.201v-3.359V26.201z"/>
	<rect x="24.73" y="22.842" fill="#6D6B6B" width="0.5" height="3.359"/>
</g>
<g>
	<path fill="#6E6C6C" d="M5,32.861v-6.66V32.861z"/>
	<rect x="4.75" y="26.201" fill="#6D6B6B" width="0.5" height="6.66"/>
</g>
</svg>
