<?xml version="1.0" encoding="utf-8"?>
<!-- Generator: Adobe Illustrator 16.0.0, SVG Export Plug-In . SVG Version: 6.00 Build 0)  -->
<!DOCTYPE svg PUBLIC "-//W3C//DTD SVG 1.1//EN" "http://www.w3.org/Graphics/SVG/1.1/DTD/svg11.dtd">
<svg version="1.1" id="Layer_1" xmlns="http://www.w3.org/2000/svg" xmlns:xlink="http://www.w3.org/1999/xlink" x="0px" y="0px"
	 width="812.102px" height="92.865px" viewBox="0 0 812.102 92.865" enable-background="new 0 0 812.102 92.865"
	 xml:space="preserve">
<g>
	<polyline fill="#6D6B6B" points="760.356,48.258 747.564,48.258 747.564,73.911 786.01,73.911 786.01,35.396 	"/>
	<polygon fill="#6D6B6B" points="786.51,74.411 747.064,74.411 747.064,47.758 760.356,47.758 760.356,48.758 748.064,48.758 
		748.064,73.411 785.51,73.411 785.51,35.396 786.51,35.396 	"/>
</g>
<g>
	<path fill="#6D6B6B" d="M773.218,61.049V35.395V61.049z"/>
	<rect x="772.718" y="35.395" fill="#6D6B6B" width="1" height="25.654"/>
</g>
<g>
	<path fill="#6D6B6B" d="M760.356,61.049V48.258V61.049z"/>
	<rect x="759.856" y="48.258" fill="#6D6B6B" width="1" height="12.791"/>
</g>
<g>
	<polyline fill="#6D6B6B" points="773.219,35.396 760.356,35.396 760.356,22.604 798.872,22.604 	"/>
	<polygon fill="#6D6B6B" points="773.219,35.896 759.856,35.896 759.856,22.104 798.872,22.104 798.872,23.104 760.856,23.104 
		760.856,34.896 773.219,34.896 	"/>
</g>
<g>
	<path fill="#6D6B6B" d="M786.01,35.395h12.861H786.01z"/>
	<rect x="786.01" y="34.895" fill="#6D6B6B" width="12.861" height="1"/>
</g>
<g>
	<path fill="#6D6B6B" d="M798.871,35.395V22.604V35.395z"/>
	<rect x="798.371" y="22.604" fill="#6D6B6B" width="1" height="12.791"/>
</g>
<g>
	<path fill="#6D6B6B" d="M760.356,61.049h12.861H760.356z"/>
	<rect x="760.356" y="60.549" fill="#6D6B6B" width="12.861" height="1"/>
</g>
<g>
	<line fill="#6D6B6B" x1="689.826" y1="73.911" x2="711.451" y2="22.604"/>
	
		<rect x="700.138" y="20.418" transform="matrix(0.9215 0.3885 -0.3885 0.9215 73.7819 -268.4029)" fill="#6D6B6B" width="1" height="55.678"/>
</g>
<g>
	<line fill="#6D6B6B" x1="702.618" y1="73.911" x2="709.896" y2="61.049"/>
	
		<rect x="705.757" y="60.091" transform="matrix(0.8706 0.4919 -0.4919 0.8706 124.5599 -338.6987)" fill="#6D6B6B" width="1.001" height="14.779"/>
</g>
<g>
	<line fill="#6D6B6B" x1="719.509" y1="22.604" x2="741.134" y2="73.911"/>
	
		<rect x="702.482" y="47.757" transform="matrix(0.3884 0.9215 -0.9215 0.3884 491.1389 -643.4719)" fill="#6D6B6B" width="55.678" height="1"/>
</g>
<g>
	<line fill="#6D6B6B" x1="720.992" y1="61.049" x2="728.271" y2="73.911"/>
	
		<rect x="717.242" y="66.98" transform="matrix(0.4925 0.8703 -0.8703 0.4925 426.4534 -596.3984)" fill="#6D6B6B" width="14.779" height="1.001"/>
</g>
<g>
	<path fill="#6D6B6B" d="M728.271,73.911h12.862H728.271z"/>
	<rect x="728.271" y="73.411" fill="#6D6B6B" width="12.862" height="1"/>
</g>
<g>
	<path fill="#6D6B6B" d="M689.827,73.911h12.792H689.827z"/>
	<rect x="689.827" y="73.411" fill="#6D6B6B" width="12.792" height="1"/>
</g>
<g>
	<path fill="#6D6B6B" d="M709.896,61.049h11.096H709.896z"/>
	<rect x="709.896" y="60.549" fill="#6D6B6B" width="11.096" height="1"/>
</g>
<g>
	<polygon fill="#6D6B6B" points="709.897,51.297 715.48,41.474 720.992,51.297 	"/>
	<path fill="#6D6B6B" d="M721.846,51.797h-12.808l6.445-11.34L721.846,51.797z M710.757,50.797h9.382l-4.661-8.307L710.757,50.797z"
		/>
</g>
<g>
	<path fill="#6D6B6B" d="M711.452,22.604h8.057H711.452z"/>
	<rect x="711.452" y="22.104" fill="#6D6B6B" width="8.057" height="1"/>
</g>
<g>
	<path fill="#6D6B6B" d="M632.088,22.604h25.654H632.088z"/>
	<rect x="632.088" y="22.104" fill="#6D6B6B" width="25.654" height="1"/>
</g>
<g>
	<path fill="#6D6B6B" d="M644.88,35.395h10.318H644.88z"/>
	<rect x="644.88" y="34.895" fill="#6D6B6B" width="10.318" height="1"/>
</g>
<g>
	<line fill="#6D6B6B" x1="657.742" y1="22.604" x2="683.396" y2="35.395"/>
	
		<rect x="656.236" y="28.5" transform="matrix(0.8949 0.4462 -0.4462 0.8949 83.3959 -296.1644)" fill="#6D6B6B" width="28.666" height="0.999"/>
</g>
<g>
	<line fill="#6D6B6B" x1="655.198" y1="35.396" x2="670.534" y2="41.826"/>
	
		<rect x="654.551" y="38.111" transform="matrix(0.9222 0.3867 -0.3867 0.9222 66.4979 -253.3262)" fill="#6D6B6B" width="16.63" height="1"/>
</g>
<g>
	<line fill="#6D6B6B" x1="683.396" y1="48.258" x2="666.294" y2="56.809"/>
	
		<rect x="674.345" y="42.973" transform="matrix(0.4472 0.8944 -0.8944 0.4472 420.0321 -574.5598)" fill="#6D6B6B" width="1" height="19.12"/>
</g>
<g>
	<line fill="#6D6B6B" x1="670.533" y1="41.827" x2="655.692" y2="48.258"/>
	
		<rect x="662.612" y="36.955" transform="matrix(0.3982 0.9173 -0.9173 0.3982 440.4091 -581.1769)" fill="#6D6B6B" width="1.001" height="16.174"/>
</g>
<g>
	<polyline fill="#6D6B6B" points="666.293,56.809 683.396,73.911 670.533,73.911 	"/>
	<polygon fill="#6D6B6B" points="684.603,74.411 670.533,74.411 670.533,73.411 682.188,73.411 665.939,57.162 666.646,56.455 	"/>
</g>
<g>
	<line fill="#6D6B6B" x1="657.742" y1="61.049" x2="670.533" y2="73.911"/>
	
		<rect x="655.068" y="66.98" transform="matrix(0.7051 0.7091 -0.7091 0.7051 243.6762 -451.0223)" fill="#6D6B6B" width="18.14" height="1"/>
</g>
<g>
	<polyline fill="#6D6B6B" points="644.88,73.911 632.088,73.911 632.088,22.604 	"/>
	<polygon fill="#6D6B6B" points="644.88,74.411 631.588,74.411 631.588,22.604 632.588,22.604 632.588,73.411 644.88,73.411 	"/>
</g>
<g>
	<path fill="#6D6B6B" d="M644.88,73.911V61.049V73.911z"/>
	<rect x="644.38" y="61.049" fill="#6D6B6B" width="1" height="12.862"/>
</g>
<g>
	<path fill="#6D6B6B" d="M644.88,48.258h10.812H644.88z"/>
	<rect x="644.88" y="47.758" fill="#6D6B6B" width="10.812" height="1"/>
</g>
<g>
	<path fill="#6D6B6B" d="M644.88,61.049h12.862H644.88z"/>
	<rect x="644.88" y="60.549" fill="#6D6B6B" width="12.862" height="1"/>
</g>
<g>
	<path fill="#6D6B6B" d="M644.88,48.258V35.396V48.258z"/>
	<rect x="644.38" y="35.396" fill="#6D6B6B" width="1" height="12.862"/>
</g>
<g>
	<path fill="#6D6B6B" d="M683.396,48.258V35.396V48.258z"/>
	<rect x="682.896" y="35.396" fill="#6D6B6B" width="1" height="12.862"/>
</g>
<g>
	<polyline fill="#6D6B6B" points="625.657,35.396 625.657,22.604 574.351,22.604 574.351,48.258 	"/>
	<polygon fill="#6D6B6B" points="574.851,48.258 573.851,48.258 573.851,22.104 626.157,22.104 626.157,35.396 625.157,35.396 
		625.157,23.104 574.851,23.104 	"/>
</g>
<g>
	<path fill="#6D6B6B" d="M587.143,61.049h25.653H587.143z"/>
	<rect x="587.143" y="60.549" fill="#6D6B6B" width="25.653" height="1"/>
</g>
<g>
	<path fill="#6D6B6B" d="M587.143,54.688h25.653H587.143z"/>
	<rect x="587.143" y="54.188" fill="#6D6B6B" width="25.653" height="1"/>
</g>
<g>
	<polyline fill="#6D6B6B" points="574.351,73.911 625.657,73.911 625.657,41.826 	"/>
	<polygon fill="#6D6B6B" points="626.157,74.411 574.351,74.411 574.351,73.411 625.157,73.411 625.157,41.826 626.157,41.826 	"/>
</g>
<g>
	<path fill="#6D6B6B" d="M587.143,35.396h38.516H587.143z"/>
	<rect x="587.143" y="34.896" fill="#6D6B6B" width="38.516" height="1"/>
</g>
<g>
	<path fill="#6D6B6B" d="M587.143,41.826v-6.431V41.826z"/>
	<rect x="586.643" y="35.396" fill="#6D6B6B" width="1" height="6.431"/>
</g>
<g>
	<path fill="#6D6B6B" d="M574.351,54.688v-6.431V54.688z"/>
	<rect x="573.851" y="48.258" fill="#6D6B6B" width="1" height="6.431"/>
</g>
<g>
	<path fill="#6D6B6B" d="M574.351,61.049h12.792H574.351z"/>
	<rect x="574.351" y="60.549" fill="#6D6B6B" width="12.792" height="1"/>
</g>
<g>
	<path fill="#6D6B6B" d="M574.351,54.688h12.792H574.351z"/>
	<rect x="574.351" y="54.188" fill="#6D6B6B" width="12.792" height="1"/>
</g>
<g>
	<path fill="#6D6B6B" d="M587.143,41.826h38.516H587.143z"/>
	<rect x="587.143" y="41.326" fill="#6D6B6B" width="38.516" height="1"/>
</g>
<g>
	<path fill="#6D6B6B" d="M612.796,61.049v-6.36V61.049z"/>
	<rect x="612.296" y="54.688" fill="#6D6B6B" width="1" height="6.36"/>
</g>
<g>
	<path fill="#6D6B6B" d="M574.351,73.911V61.049V73.911z"/>
	<rect x="573.851" y="61.049" fill="#6D6B6B" width="1" height="12.862"/>
</g>
<g>
	<path fill="#6D6B6B" d="M516.611,73.911V22.604V73.911z"/>
	<rect x="516.111" y="22.604" fill="#6D6B6B" width="1" height="51.307"/>
</g>
<g>
	<polyline fill="#6D6B6B" points="532.301,22.604 555.057,56.738 555.057,22.604 	"/>
	<polygon fill="#6D6B6B" points="555.557,58.39 531.885,22.881 532.717,22.327 554.557,55.087 554.557,22.604 555.557,22.604 	"/>
</g>
<g>
	<polyline fill="#6D6B6B" points="567.919,22.604 567.919,73.911 552.159,73.911 529.403,39.777 	"/>
	<polygon fill="#6D6B6B" points="568.419,74.411 551.892,74.411 528.987,40.054 529.819,39.5 552.427,73.411 567.419,73.411 
		567.419,22.604 568.419,22.604 	"/>
</g>
<g>
	<path fill="#6D6B6B" d="M516.611,73.911h12.793H516.611z"/>
	<rect x="516.611" y="73.411" fill="#6D6B6B" width="12.793" height="1"/>
</g>
<g>
	<path fill="#6D6B6B" d="M529.403,73.911V39.777V73.911z"/>
	<rect x="528.903" y="39.777" fill="#6D6B6B" width="1" height="34.134"/>
</g>
<g>
	<path fill="#6D6B6B" d="M555.057,22.604h12.862H555.057z"/>
	<rect x="555.057" y="22.104" fill="#6D6B6B" width="12.862" height="1"/>
</g>
<g>
	<path fill="#6D6B6B" d="M516.611,22.604h15.69H516.611z"/>
	<rect x="516.611" y="22.104" fill="#6D6B6B" width="15.69" height="1"/>
</g>
<g>
	<line fill="#6D6B6B" x1="458.803" y1="73.911" x2="480.428" y2="22.604"/>
	
		<rect x="469.115" y="20.418" transform="matrix(0.9215 0.3885 -0.3885 0.9215 55.6353 -178.6518)" fill="#6D6B6B" width="1" height="55.678"/>
</g>
<g>
	<line fill="#6D6B6B" x1="471.665" y1="73.911" x2="478.944" y2="61.049"/>
	
		<rect x="474.804" y="60.09" transform="matrix(0.8706 0.4919 -0.4919 0.8706 94.6829 -225.0865)" fill="#6D6B6B" width="1.001" height="14.779"/>
</g>
<g>
	<line fill="#6D6B6B" x1="488.556" y1="22.604" x2="510.181" y2="73.911"/>
	
		<rect x="471.529" y="47.757" transform="matrix(0.3884 0.9215 -0.9215 0.3884 349.8863 -430.6501)" fill="#6D6B6B" width="55.678" height="1"/>
</g>
<g>
	<line fill="#6D6B6B" x1="490.04" y1="61.049" x2="497.319" y2="73.911"/>
	
		<rect x="486.29" y="66.98" transform="matrix(0.4925 0.8703 -0.8703 0.4925 309.2531 -395.4023)" fill="#6D6B6B" width="14.779" height="1.001"/>
</g>
<g>
	<path fill="#6D6B6B" d="M497.319,73.911h12.862H497.319z"/>
	<rect x="497.319" y="73.411" fill="#6D6B6B" width="12.862" height="1"/>
</g>
<g>
	<path fill="#6D6B6B" d="M458.803,73.911h12.862H458.803z"/>
	<rect x="458.803" y="73.411" fill="#6D6B6B" width="12.862" height="1"/>
</g>
<g>
	<path fill="#6D6B6B" d="M478.944,61.049h11.096H478.944z"/>
	<rect x="478.944" y="60.549" fill="#6D6B6B" width="11.096" height="1"/>
</g>
<g>
	<polygon fill="#6D6B6B" points="478.944,51.297 484.527,41.474 490.039,51.297 	"/>
	<path fill="#6D6B6B" d="M490.893,51.797h-12.808l6.445-11.34L490.893,51.797z M479.804,50.797h9.382l-4.661-8.307L479.804,50.797z"
		/>
</g>
<g>
	<path fill="#6D6B6B" d="M480.428,22.604h8.129H480.428z"/>
	<rect x="480.428" y="22.104" fill="#6D6B6B" width="8.129" height="1"/>
</g>
<g>
	<path fill="#6D6B6B" d="M318.946,22.463H344.6H318.946z"/>
	<rect x="318.946" y="21.963" fill="#6D6B6B" width="25.654" height="1"/>
</g>
<g>
	<path fill="#6D6B6B" d="M357.39,60.979V35.324V60.979z"/>
	<rect x="356.89" y="35.324" fill="#6D6B6B" width="1" height="25.654"/>
</g>
<g>
	<path fill="#6D6B6B" d="M306.083,60.979V35.324V60.979z"/>
	<rect x="305.583" y="35.324" fill="#6D6B6B" width="1" height="25.654"/>
</g>
<g>
	<path fill="#6D6B6B" d="M318.946,55.679V40.625V55.679z"/>
	<rect x="318.446" y="40.625" fill="#6D6B6B" width="1" height="15.053"/>
</g>
<g>
	<path fill="#6D6B6B" d="M324.246,60.979h15.052H324.246z"/>
	<rect x="324.246" y="60.479" fill="#6D6B6B" width="15.052" height="1"/>
</g>
<g>
	<path fill="#6D6B6B" d="M344.599,55.679V40.625V55.679z"/>
	<rect x="344.099" y="40.625" fill="#6D6B6B" width="1" height="15.053"/>
</g>
<g>
	<path fill="#6D6B6B" d="M324.246,35.325h15.052H324.246z"/>
	<rect x="324.246" y="34.825" fill="#6D6B6B" width="15.052" height="1"/>
</g>
<g>
	<path fill="#6D6B6B" d="M318.946,73.84H344.6H318.946z"/>
	<rect x="318.946" y="73.34" fill="#6D6B6B" width="25.654" height="1"/>
</g>
<g>
	<line fill="#6D6B6B" x1="318.945" y1="22.462" x2="306.083" y2="35.325"/>
	
		<rect x="312.014" y="19.799" transform="matrix(0.7071 0.7071 -0.7071 0.7071 111.9642 -212.5183)" fill="#6D6B6B" width="1" height="18.19"/>
</g>
<g>
	<line fill="#6D6B6B" x1="324.246" y1="35.325" x2="318.946" y2="40.625"/>
	
		<rect x="321.096" y="34.227" transform="matrix(0.7071 0.7071 -0.7071 0.7071 121.0455 -216.2799)" fill="#6D6B6B" width="1" height="7.495"/>
</g>
<g>
	<line fill="#6D6B6B" x1="306.083" y1="60.979" x2="318.945" y2="73.841"/>
	
		<rect x="303.419" y="66.91" transform="matrix(0.7071 0.7071 -0.7071 0.7071 139.1991 -201.2371)" fill="#6D6B6B" width="18.19" height="1"/>
</g>
<g>
	<line fill="#6D6B6B" x1="318.945" y1="55.678" x2="324.245" y2="60.979"/>
	
		<rect x="317.847" y="57.828" transform="matrix(0.707 0.7072 -0.7072 0.707 135.462 -210.3354)" fill="#6D6B6B" width="7.496" height="1"/>
</g>
<g>
	<line fill="#6D6B6B" x1="344.599" y1="73.841" x2="357.39" y2="60.979"/>
	
		<rect x="350.494" y="58.34" transform="matrix(0.7091 0.7052 -0.7052 0.7091 149.6531 -227.8914)" fill="#6D6B6B" width="1" height="18.14"/>
</g>
<g>
	<line fill="#6D6B6B" x1="339.299" y1="60.979" x2="344.599" y2="55.679"/>
	
		<rect x="341.449" y="54.581" transform="matrix(0.7071 0.7071 -0.7071 0.7071 141.399 -224.7102)" fill="#6D6B6B" width="1" height="7.495"/>
</g>
<g>
	<line fill="#6D6B6B" x1="344.599" y1="22.462" x2="357.39" y2="35.325"/>
	
		<rect x="341.924" y="28.394" transform="matrix(0.7051 0.7091 -0.7091 0.7051 123.982 -240.3595)" fill="#6D6B6B" width="18.14" height="1"/>
</g>
<g>
	<line fill="#6D6B6B" x1="339.299" y1="35.325" x2="344.599" y2="40.625"/>
	
		<rect x="338.201" y="37.475" transform="matrix(0.7071 0.7071 -0.7071 0.7071 127.0191 -230.6816)" fill="#6D6B6B" width="7.495" height="1"/>
</g>
<g>
	<polygon fill="#6D6B6B" points="248.345,22.462 248.345,35.325 267.568,35.325 267.568,60.979 248.345,60.979 248.345,73.841 
		299.652,73.841 299.652,60.979 280.43,60.979 280.43,35.325 299.652,35.325 299.652,22.462 	"/>
	<path fill="#6D6B6B" d="M300.152,74.341h-52.307V60.479h19.223V35.825h-19.223V21.962h52.307v13.862H280.93v24.654h19.222V74.341z
		 M248.845,73.341h50.307V61.479H279.93V34.825h19.222V22.962h-50.307v11.862h19.223v26.654h-19.223V73.341z"/>
</g>
<g>
	<polyline fill="#6D6B6B" points="190.607,22.462 216.261,22.462 241.914,35.325 	"/>
	<polygon fill="#6D6B6B" points="241.689,35.771 216.143,22.962 190.607,22.962 190.607,21.962 216.379,21.962 242.138,34.878 	"/>
</g>
<g>
	<line fill="#6D6B6B" x1="213.222" y1="35.325" x2="229.123" y2="43.24"/>
	
		<rect x="212.291" y="38.782" transform="matrix(0.8952 0.4456 -0.4456 0.8952 40.6786 -94.4425)" fill="#6D6B6B" width="17.762" height="1"/>
</g>
<g>
	<polyline fill="#6D6B6B" points="241.914,35.325 241.914,60.979 216.26,73.841 	"/>
	<polygon fill="#6D6B6B" points="216.484,74.288 216.036,73.394 241.414,60.67 241.414,35.325 242.414,35.325 242.414,61.287 	"/>
</g>
<g>
	<line fill="#6D6B6B" x1="229.123" y1="53.063" x2="213.222" y2="60.979"/>
	
		<rect x="220.673" y="48.14" transform="matrix(0.4456 0.8952 -0.8952 0.4456 173.6526 -166.3853)" fill="#6D6B6B" width="0.999" height="17.762"/>
</g>
<g>
	<polyline fill="#6D6B6B" points="216.26,73.841 190.606,73.841 190.606,22.462 	"/>
	<polygon fill="#6D6B6B" points="216.26,74.341 190.106,74.341 190.106,22.462 191.106,22.462 191.106,73.341 216.26,73.341 	"/>
</g>
<g>
	<polyline fill="#6D6B6B" points="203.469,35.325 203.469,60.979 213.222,60.979 	"/>
	<polygon fill="#6D6B6B" points="213.222,61.479 202.969,61.479 202.969,35.325 203.969,35.325 203.969,60.479 213.222,60.479 	"/>
</g>
<g>
	<path fill="#6D6B6B" d="M203.469,35.325h9.753H203.469z"/>
	<rect x="203.469" y="34.825" fill="#6D6B6B" width="9.753" height="1"/>
</g>
<g>
	<path fill="#6D6B6B" d="M229.122,53.062V43.24V53.062z"/>
	<rect x="228.622" y="43.24" fill="#6D6B6B" width="1" height="9.823"/>
</g>
<g>
	<path fill="#6D6B6B" d="M132.869,60.979V22.462V60.979z"/>
	<rect x="132.369" y="22.462" fill="#6D6B6B" width="1" height="38.516"/>
</g>
<g>
	<path fill="#6D6B6B" d="M145.731,73.84h25.654H145.731z"/>
	<rect x="145.731" y="73.34" fill="#6D6B6B" width="25.654" height="1"/>
</g>
<g>
	<polyline fill="#6D6B6B" points="184.176,60.979 184.176,22.462 171.385,22.462 171.385,54.548 	"/>
	<polygon fill="#6D6B6B" points="184.676,60.979 183.676,60.979 183.676,22.962 171.885,22.962 171.885,54.548 170.885,54.548 
		170.885,21.962 184.676,21.962 	"/>
</g>
<g>
	<polyline fill="#6D6B6B" points="145.73,54.547 145.73,22.462 132.869,22.462 	"/>
	<polygon fill="#6D6B6B" points="146.23,54.547 145.23,54.547 145.23,22.962 132.869,22.962 132.869,21.962 146.23,21.962 	"/>
</g>
<g>
	<line fill="#6D6B6B" x1="184.176" y1="60.979" x2="171.385" y2="73.841"/>
	
		<rect x="177.28" y="58.34" transform="matrix(0.7091 0.7052 -0.7052 0.7091 99.2578 -105.7496)" fill="#6D6B6B" width="1" height="18.14"/>
</g>
<g>
	<line fill="#6D6B6B" x1="132.869" y1="60.979" x2="145.73" y2="73.841"/>
	
		<rect x="130.205" y="66.91" transform="matrix(0.7071 0.7071 -0.7071 0.7071 88.4685 -78.7568)" fill="#6D6B6B" width="18.19" height="1"/>
</g>
<g>
	<path fill="#6D6B6B" d="M152.091,60.979h12.862H152.091z"/>
	<rect x="152.091" y="60.479" fill="#6D6B6B" width="12.862" height="1"/>
</g>
<g>
	<line fill="#6D6B6B" x1="145.73" y1="54.547" x2="152.091" y2="60.979"/>
	
		<rect x="144.388" y="57.263" transform="matrix(0.7032 0.711 -0.711 0.7032 85.2747 -88.7343)" fill="#6D6B6B" width="9.045" height="1"/>
</g>
<g>
	<line fill="#6D6B6B" x1="171.384" y1="54.547" x2="164.953" y2="60.979"/>
	
		<rect x="167.669" y="53.215" transform="matrix(0.7071 0.7071 -0.7071 0.7071 90.0999 -101.9949)" fill="#6D6B6B" width="1" height="9.095"/>
</g>
<g>
	<polyline fill="#6D6B6B" points="75.13,22.462 126.438,22.462 126.438,35.325 107.215,35.325 	"/>
	<polygon fill="#6D6B6B" points="126.938,35.825 107.215,35.825 107.215,34.825 125.938,34.825 125.938,22.962 75.13,22.962 
		75.13,21.962 126.938,21.962 	"/>
</g>
<g>
	<path fill="#6D6B6B" d="M94.353,73.84V35.324V73.84z"/>
	<rect x="93.853" y="35.324" fill="#6D6B6B" width="1" height="38.516"/>
</g>
<g>
	<path fill="#6D6B6B" d="M107.215,73.84V35.324V73.84z"/>
	<rect x="106.715" y="35.324" fill="#6D6B6B" width="1" height="38.516"/>
</g>
<g>
	<polyline fill="#6D6B6B" points="94.353,35.325 75.13,35.325 75.13,22.463 	"/>
	<polygon fill="#6D6B6B" points="94.353,35.825 74.63,35.825 74.63,22.463 75.63,22.463 75.63,34.825 94.353,34.825 	"/>
</g>
<g>
	<path fill="#6D6B6B" d="M94.353,73.84h12.863H94.353z"/>
	<rect x="94.353" y="73.34" fill="#6D6B6B" width="12.863" height="1"/>
</g>
<g>
	<path fill="#6D6B6B" d="M439.581,73.911h12.861H439.581z"/>
	<rect x="439.581" y="73.411" fill="#6D6B6B" width="12.861" height="1"/>
</g>
<g>
	<path fill="#6D6B6B" d="M439.581,73.911V61.049V73.911z"/>
	<rect x="439.081" y="61.049" fill="#6D6B6B" width="1" height="12.862"/>
</g>
<g>
	<polyline fill="#6D6B6B" points="401.065,22.604 413.927,22.604 413.927,41.827 	"/>
	<polygon fill="#6D6B6B" points="414.427,41.827 413.427,41.827 413.427,23.104 401.065,23.104 401.065,22.104 414.427,22.104 	"/>
</g>
<g>
	<polyline fill="#6D6B6B" points="439.581,41.827 439.581,22.604 452.442,22.604 452.442,73.911 	"/>
	<polygon fill="#6D6B6B" points="452.942,73.911 451.942,73.911 451.942,23.104 440.081,23.104 440.081,41.827 439.081,41.827 
		439.081,22.104 452.942,22.104 	"/>
</g>
<g>
	<polyline fill="#6D6B6B" points="439.581,73.911 439.581,54.688 413.927,54.688 	"/>
	<polygon fill="#6D6B6B" points="440.081,73.911 439.081,73.911 439.081,55.188 413.927,55.188 413.927,54.188 440.081,54.188 	"/>
</g>
<g>
	<path fill="#6D6B6B" d="M413.927,41.826h25.654H413.927z"/>
	<rect x="413.927" y="41.326" fill="#6D6B6B" width="25.654" height="1"/>
</g>
<g>
	<polyline fill="#6D6B6B" points="413.927,54.688 413.927,73.912 401.065,73.912 401.065,22.604 	"/>
	<polygon fill="#6D6B6B" points="414.427,74.412 400.565,74.412 400.565,22.604 401.565,22.604 401.565,73.412 413.427,73.412 
		413.427,54.688 414.427,54.688 	"/>
</g>
<g>
	<polyline fill="#6D6B6B" points="68.699,35.325 68.699,22.463 17.392,22.463 17.392,48.187 	"/>
	<polygon fill="#6D6B6B" points="17.892,48.187 16.892,48.187 16.892,21.963 69.199,21.963 69.199,35.325 68.199,35.325 
		68.199,22.963 17.892,22.963 	"/>
</g>
<g>
	<path fill="#6D6B6B" d="M30.184,60.979h25.725H30.184z"/>
	<rect x="30.184" y="60.479" fill="#6D6B6B" width="25.725" height="1"/>
</g>
<g>
	<path fill="#6D6B6B" d="M30.184,54.547h25.725H30.184z"/>
	<rect x="30.184" y="54.047" fill="#6D6B6B" width="25.725" height="1"/>
</g>
<g>
	<polyline fill="#6D6B6B" points="17.392,73.841 68.699,73.841 68.699,41.755 	"/>
	<polygon fill="#6D6B6B" points="69.199,74.341 17.392,74.341 17.392,73.341 68.199,73.341 68.199,41.755 69.199,41.755 	"/>
</g>
<g>
	<path fill="#6D6B6B" d="M30.184,35.325h38.516H30.184z"/>
	<rect x="30.184" y="34.825" fill="#6D6B6B" width="38.516" height="1"/>
</g>
<g>
	<path fill="#6D6B6B" d="M30.184,41.756v-6.431V41.756z"/>
	<rect x="29.684" y="35.325" fill="#6D6B6B" width="1" height="6.431"/>
</g>
<g>
	<path fill="#6D6B6B" d="M17.392,54.547v-6.359V54.547z"/>
	<rect x="16.892" y="48.188" fill="#6D6B6B" width="1" height="6.359"/>
</g>
<g>
	<path fill="#6D6B6B" d="M17.392,60.979h12.792H17.392z"/>
	<rect x="17.392" y="60.479" fill="#6D6B6B" width="12.792" height="1"/>
</g>
<g>
	<path fill="#6D6B6B" d="M17.392,54.547h12.792H17.392z"/>
	<rect x="17.392" y="54.047" fill="#6D6B6B" width="12.792" height="1"/>
</g>
<g>
	<path fill="#6D6B6B" d="M30.184,41.756h38.516H30.184z"/>
	<rect x="30.184" y="41.256" fill="#6D6B6B" width="38.516" height="1"/>
</g>
<g>
	<path fill="#6D6B6B" d="M55.908,60.979v-6.431V60.979z"/>
	<rect x="55.408" y="54.548" fill="#6D6B6B" width="1" height="6.431"/>
</g>
<g>
	<path fill="#6D6B6B" d="M17.392,73.84V60.979V73.84z"/>
	<rect x="16.892" y="60.979" fill="#6D6B6B" width="1" height="12.861"/>
</g>
</svg>
