<?xml version="1.0" encoding="utf-8"?>
<!-- Generator: Adobe Illustrator 16.0.0, SVG Export Plug-In . SVG Version: 6.00 Build 0)  -->
<!DOCTYPE svg PUBLIC "-//W3C//DTD SVG 1.1//EN" "http://www.w3.org/Graphics/SVG/1.1/DTD/svg11.dtd">
<svg version="1.1" id="Layer_1" xmlns="http://www.w3.org/2000/svg" xmlns:xlink="http://www.w3.org/1999/xlink" x="0px" y="0px"
	 width="852px" height="260px" viewBox="0 0 852 260" enable-background="new 0 0 852 260" xml:space="preserve">
<path fill="#231F20" d="M651.113,180.144c0,35.212-16.225,71.118-69.047,71.118h-38.237l-2.069,2.069h110.389
	c0.689,0,1.035-0.344,1.035-1.035v-72.152C653.184,179.452,651.113,179.452,651.113,180.144z M793.125,251.262H762.4
	c-1.383,0-2.07-0.348-2.07-1.383V34.761l-37.979,37.979v177.14c0,1.035-0.689,1.383-2.07,1.383H689.9c-0.689,0-0.689,2.069,0,2.069
	h103.225C793.814,253.331,793.814,251.262,793.125,251.262z M331.032,6.532l-35.699,98.759l3.586-3.593l16.579-45.451l7.657,21.17
	l27.04-27.089L333.449,6.532C333.105,5.498,331.379,5.498,331.032,6.532z M841.807,8.562h-55.278l-2.873,2.873
	c40.587,5.135,56.769,34.349,56.769,70.66c0,0.69,2.07,0.69,2.07,0V9.597C842.494,9.253,842.494,8.562,841.807,8.562z
	 M118.398,122.832c32.795,0,69.737-24.508,69.737-57.649c0-38.321-37.977-56.62-80.785-56.62H9.302c-1.034,0-1.034,2.07,0,2.07
	h30.382c1.382,0,2.07,0.691,2.07,1.382v237.865c0,1.035-0.688,1.383-2.07,1.383H9.302c-1.034,0-1.034,2.069,0,2.069h115.309
	c9.358,0,17.883-0.954,25.619-2.671l55.482-55.584c0.243-2.204,0.375-4.422,0.375-6.647
	C206.087,147.345,166.383,122.832,118.398,122.832z M79.386,12.014c0-0.691,0.691-1.382,2.417-1.382h20.022
	c35.216,0,49.716,15.191,49.716,55.928c0,42.464-12.087,55.236-37.977,55.236H79.386V12.014z M114.946,251.262H81.803
	c-1.726,0-2.417-0.348-2.417-1.383V123.871h30.725c35.212,0,59.033,11.392,59.033,66.628
	C169.144,236.071,147.741,251.262,114.946,251.262z"/>
<path fill="#231F20" d="M177.623,243.835c27.973-12.395,38.671-35.91,40.192-54.381l-60.432,60.462
	C164.503,248.575,171.154,246.644,177.623,243.835z M779.458,8.906h-125.05V57.24h63.523v13.223L779.458,8.906z M259.13,148.119
	l-38.852,104.693h64.903l12.082-39.012h89.761l12.083,39.012h64.901L380.672,26.516L259.13,148.119z M311.418,169.958
	c5.522-18.298,14.843-46.953,20.021-65.249c3.452-12.43,6.908-25.203,10.013-37.633l31.763,102.882H311.418z M548.211,8.906h-60.76
	v244.079h48.052l51.414-51.44h-38.706V8.906z"/>
</svg>
