<?xml version="1.0" encoding="utf-8"?>
<!-- Generator: Adobe Illustrator 16.0.0, SVG Export Plug-In . SVG Version: 6.00 Build 0)  -->
<!DOCTYPE svg PUBLIC "-//W3C//DTD SVG 1.1//EN" "http://www.w3.org/Graphics/SVG/1.1/DTD/svg11.dtd">
<svg version="1.1" id="Layer_1" xmlns="http://www.w3.org/2000/svg" xmlns:xlink="http://www.w3.org/1999/xlink" x="0px" y="0px"
	 width="278px" height="40px" viewBox="0 0 278 40" enable-background="new 0 0 278 40" xml:space="preserve">
<g>
	<polygon fill="#6E6C6C" points="272.71,33.305 245.01,33.305 245.01,5.605 272.71,5.605 272.71,12.825 271.71,12.825 271.71,6.605 
		246.01,6.605 246.01,32.305 271.71,32.305 271.71,26.645 251.67,26.645 251.67,22.785 252.67,22.785 252.67,25.645 272.71,25.645 	
		"/>
</g>
<g>
	<polygon fill="#6E6C6C" points="252.67,16.125 251.67,16.125 251.67,12.325 272.21,12.325 272.21,13.325 252.67,13.325 	"/>
</g>
<g>
	<rect x="258.33" y="16.125" fill="#6E6C6C" width="1" height="6.66"/>
</g>
<g>
	<rect x="252.17" y="15.625" fill="#6E6C6C" width="6.66" height="1"/>
</g>
<g>
	<rect x="252.17" y="22.285" fill="#6E6C6C" width="6.66" height="1"/>
</g>
<g>
	<rect x="215.45" y="5.605" fill="#6E6C6C" width="13.38" height="1"/>
</g>
<g>
	<rect x="222.11" y="12.325" fill="#6E6C6C" width="5.399" height="1"/>
</g>
<g>
	
		<rect x="228.03" y="8.965" transform="matrix(0.8928 0.4505 -0.4505 0.8928 29.5086 -105.0634)" fill="#6E6C6C" width="14.919" height="1"/>
</g>
<g>
	
		<rect x="227.182" y="13.975" transform="matrix(0.9241 0.3821 -0.3821 0.9241 23.0979 -87.3598)" fill="#6E6C6C" width="8.636" height="1"/>
</g>
<g>
	
		<rect x="237.21" y="16.74" transform="matrix(0.4472 0.8944 -0.8944 0.4472 150.8162 -200.6161)" fill="#6E6C6C" width="1" height="9.929"/>
</g>
<g>
	
		<rect x="231.12" y="13.586" transform="matrix(0.3985 0.9172 -0.9172 0.3985 155.6468 -201.724)" fill="#6E6C6C" width="1" height="8.438"/>
</g>
<g>
	<polygon fill="#6E6C6C" points="243.356,33.305 235.49,33.305 235.49,32.305 240.942,32.305 232.916,24.278 233.623,23.571 	"/>
</g>
<g>
	
		<rect x="227.451" y="28.975" transform="matrix(0.7071 0.7071 -0.7071 0.7071 88.8398 -155.5291)" fill="#6E6C6C" width="9.419" height="1"/>
</g>
<g>
	<polygon fill="#6E6C6C" points="222.11,33.305 214.95,33.305 214.95,6.105 215.95,6.105 215.95,32.305 222.11,32.305 	"/>
</g>
<g>
	<rect x="221.61" y="26.145" fill="#6E6C6C" width="1" height="6.66"/>
</g>
<g>
	<rect x="222.11" y="18.985" fill="#6E6C6C" width="5.64" height="1"/>
</g>
<g>
	<rect x="222.11" y="25.645" fill="#6E6C6C" width="6.72" height="1"/>
</g>
<g>
	<rect x="221.61" y="12.825" fill="#6E6C6C" width="1" height="6.66"/>
</g>
<g>
	<rect x="241.65" y="12.825" fill="#6E6C6C" width="1" height="6.66"/>
</g>
<g>
	<rect x="184.89" y="6.105" fill="#6E6C6C" width="1" height="20.04"/>
</g>
<g>
	<rect x="192.11" y="32.305" fill="#6E6C6C" width="13.319" height="1"/>
</g>
<g>
	<polygon fill="#6E6C6C" points="212.59,26.145 211.59,26.145 211.59,6.605 205.93,6.605 205.93,22.785 204.93,22.785 204.93,5.605 
		212.59,5.605 	"/>
</g>
<g>
	<polygon fill="#6E6C6C" points="192.61,22.785 191.61,22.785 191.61,6.605 185.39,6.605 185.39,5.605 192.61,5.605 	"/>
</g>
<g>
	
		<rect x="208.26" y="24.765" transform="matrix(0.7071 0.7071 -0.7071 0.7071 81.986 -138.9825)" fill="#6E6C6C" width="1" height="9.419"/>
</g>
<g>
	
		<rect x="184.019" y="28.975" transform="matrix(0.7103 0.7039 -0.7039 0.7103 75.4282 -124.3223)" fill="#6E6C6C" width="9.462" height="1"/>
</g>
<g>
	<rect x="195.41" y="25.645" fill="#6E6C6C" width="6.72" height="1"/>
</g>
<g>
	
		<rect x="191.406" y="23.965" transform="matrix(0.7008 0.7134 -0.7134 0.7008 75.4354 -130.9083)" fill="#6E6C6C" width="4.709" height="1"/>
</g>
<g>
	
		<rect x="203.28" y="22.11" transform="matrix(0.7129 0.7012 -0.7012 0.7129 75.6519 -135.8722)" fill="#6E6C6C" width="1" height="4.709"/>
</g>
<g>
	<polygon fill="#6E6C6C" points="182.59,13.325 172.07,13.325 172.07,12.325 181.59,12.325 181.59,6.605 155.39,6.605 155.39,5.605 
		182.59,5.605 	"/>
</g>
<g>
	<rect x="164.91" y="12.825" fill="#6E6C6C" width="1" height="19.979"/>
</g>
<g>
	<rect x="171.57" y="12.825" fill="#6E6C6C" width="1" height="19.979"/>
</g>
<g>
	<polygon fill="#6E6C6C" points="165.41,13.325 154.89,13.325 154.89,6.105 155.89,6.105 155.89,12.325 165.41,12.325 	"/>
</g>
<g>
	<rect x="165.41" y="32.305" fill="#6E6C6C" width="6.66" height="1"/>
</g>
<g>
	<rect x="125.33" y="32.305" fill="#6E6C6C" width="6.72" height="1"/>
</g>
<g>
	<rect x="125.33" y="5.605" fill="#6E6C6C" width="20.04" height="1"/>
</g>
<g>
	<rect x="132.05" y="12.325" fill="#6E6C6C" width="10.561" height="1"/>
</g>
<g>
	<rect x="124.83" y="6.105" fill="#6E6C6C" width="1" height="26.7"/>
</g>
<g>
	<rect x="131.55" y="12.825" fill="#6E6C6C" width="1" height="6.66"/>
</g>
<g>
	
		<rect x="143.969" y="8.965" transform="matrix(0.7039 0.7103 -0.7103 0.7039 50.7491 -102.8154)" fill="#6E6C6C" width="9.461" height="1"/>
</g>
<g>
	<polygon fill="#6E6C6C" points="145.87,16.725 144.87,16.725 144.87,15.792 142.257,13.179 142.964,12.472 145.87,15.378 	"/>
</g>
<g>
	
		<rect x="148.2" y="18.105" transform="matrix(0.7071 0.7071 -0.7071 0.7071 59.6857 -98.4646)" fill="#6E6C6C" width="1" height="9.419"/>
</g>
<g>
	
		<rect x="143.49" y="16.153" transform="matrix(0.7071 0.7071 -0.7071 0.7071 54.9758 -96.5133)" fill="#6E6C6C" width="1" height="3.904"/>
</g>
<g>
	<rect x="132.05" y="25.645" fill="#6E6C6C" width="13.32" height="1"/>
</g>
<g>
	<rect x="132.05" y="18.985" fill="#6E6C6C" width="10.561" height="1"/>
</g>
<g>
	<rect x="131.55" y="26.145" fill="#6E6C6C" width="1" height="6.66"/>
</g>
<g>
	<rect x="151.53" y="12.825" fill="#6E6C6C" width="1" height="6.66"/>
</g>
<g>
	<path fill="#6E6C6C" d="M122.53,33.305h-27.7v-27.7h7.66v20.04h12.319v-6.66h7.721V33.305z M95.83,32.305h25.7v-12.32h-5.721v6.66
		H101.49V6.605h-5.66V32.305z"/>
</g>
<g>
	<rect x="64.77" y="6.105" fill="#6E6C6C" width="1" height="20.04"/>
</g>
<g>
	<rect x="71.93" y="32.305" fill="#6E6C6C" width="13.38" height="1"/>
</g>
<g>
	<polygon fill="#6E6C6C" points="92.47,26.145 91.47,26.145 91.47,6.605 85.81,6.605 85.81,22.785 84.81,22.785 84.81,5.605 
		92.47,5.605 	"/>
</g>
<g>
	<polygon fill="#6E6C6C" points="72.43,22.785 71.43,22.785 71.43,6.605 65.27,6.605 65.27,5.605 72.43,5.605 	"/>
</g>
<g>
	
		<rect x="88.14" y="24.765" transform="matrix(0.7071 0.7071 -0.7071 0.7071 46.8036 -54.0448)" fill="#6E6C6C" width="1" height="9.419"/>
</g>
<g>
	
		<rect x="63.89" y="28.975" transform="matrix(0.7071 0.7071 -0.7071 0.7071 40.9341 -39.8743)" fill="#6E6C6C" width="9.419" height="1"/>
</g>
<g>
	<rect x="75.29" y="25.645" fill="#6E6C6C" width="6.66" height="1"/>
</g>
<g>
	
		<rect x="71.234" y="23.965" transform="matrix(0.7072 0.707 -0.707 0.7072 38.849 -44.8794)" fill="#6E6C6C" width="4.752" height="1"/>
</g>
<g>
	
		<rect x="83.13" y="22.089" transform="matrix(0.7071 0.7071 -0.7071 0.7071 41.7939 -51.9697)" fill="#6E6C6C" width="1" height="4.751"/>
</g>
<g>
	<polygon fill="#6E6C6C" points="62.41,33.305 34.71,33.305 34.71,5.605 62.41,5.605 62.41,16.125 61.41,16.125 61.41,6.605 
		35.71,6.605 35.71,32.305 61.41,32.305 61.41,23.285 55.25,23.285 55.25,22.285 62.41,22.285 	"/>
</g>
<g>
	<rect x="55.25" y="15.625" fill="#6E6C6C" width="6.66" height="1"/>
</g>
<g>
	<polygon fill="#6E6C6C" points="5.71,19.485 4.71,19.485 4.71,5.605 32.41,5.605 32.41,12.825 31.41,12.825 31.41,6.605 
		5.71,6.605 	"/>
</g>
<g>
	<rect x="11.87" y="25.645" fill="#6E6C6C" width="13.38" height="1"/>
</g>
<g>
	<rect x="11.87" y="22.285" fill="#6E6C6C" width="13.38" height="1"/>
</g>
<g>
	<polygon fill="#6E6C6C" points="32.41,33.305 5.21,33.305 5.21,32.305 31.41,32.305 31.41,16.125 32.41,16.125 	"/>
</g>
<g>
	<rect x="11.87" y="12.325" fill="#6E6C6C" width="20.04" height="1"/>
</g>
<g>
	<rect x="11.37" y="12.825" fill="#6E6C6C" width="1" height="3.3"/>
</g>
<g>
	<rect x="4.71" y="19.485" fill="#6E6C6C" width="1" height="3.3"/>
</g>
<g>
	<rect x="5.21" y="25.645" fill="#6E6C6C" width="6.66" height="1"/>
</g>
<g>
	<rect x="5.21" y="22.285" fill="#6E6C6C" width="6.66" height="1"/>
</g>
<g>
	<rect x="11.87" y="15.625" fill="#6E6C6C" width="20.04" height="1"/>
</g>
<g>
	<rect x="24.75" y="22.785" fill="#6E6C6C" width="1" height="3.359"/>
</g>
<g>
	<rect x="4.71" y="26.145" fill="#6E6C6C" width="1" height="6.66"/>
</g>
<g>
	<polygon fill="#6E6C6C" points="55.75,26.645 41.43,26.645 41.43,12.325 55.75,12.325 55.75,16.125 54.75,16.125 54.75,13.325 
		42.43,13.325 42.43,25.645 54.75,25.645 54.75,22.785 55.75,22.785 	"/>
</g>
</svg>
