<?xml version="1.0" encoding="utf-8"?>
<!-- Generator: Adobe Illustrator 16.0.0, SVG Export Plug-In . SVG Version: 6.00 Build 0)  -->
<!DOCTYPE svg PUBLIC "-//W3C//DTD SVG 1.1//EN" "http://www.w3.org/Graphics/SVG/1.1/DTD/svg11.dtd">
<svg version="1.1" id="Layer_1" xmlns="http://www.w3.org/2000/svg" xmlns:xlink="http://www.w3.org/1999/xlink" x="0px" y="0px"
	 width="214px" height="40px" viewBox="0 0 214 40" enable-background="new 0 0 214 40" xml:space="preserve">
<g>
	<g>
		<polyline fill="#6E6C6C" points="96.042,6 122.743,6 122.743,12.66 112.732,12.66 		"/>
	</g>
	<g>
		<polygon fill="#6E6C6C" points="122.993,12.91 112.732,12.91 112.732,12.41 122.493,12.41 122.493,6.25 96.042,6.25 96.042,5.75 
			122.993,5.75 		"/>
	</g>
</g>
<g>
	<g>
		<path fill="#6E6C6C" d="M106.052,32.681V12.66V32.681z"/>
	</g>
	<g>
		<rect x="105.802" y="12.66" fill="#6E6C6C" width="0.5" height="20.021"/>
	</g>
</g>
<g>
	<g>
		<path fill="#6E6C6C" d="M112.732,32.681V12.66V32.681z"/>
	</g>
	<g>
		<rect x="112.482" y="12.66" fill="#6E6C6C" width="0.5" height="20.021"/>
	</g>
</g>
<g>
	<g>
		<polyline fill="#6E6C6C" points="106.053,12.66 96.042,12.66 96.042,6 		"/>
	</g>
	<g>
		<polygon fill="#6E6C6C" points="106.053,12.91 95.792,12.91 95.792,6 96.292,6 96.292,12.41 106.053,12.41 		"/>
	</g>
</g>
<g>
	<g>
		<path fill="#6E6C6C" d="M106.052,32.681h6.681H106.052z"/>
	</g>
	<g>
		<rect x="106.052" y="32.431" fill="#6E6C6C" width="6.681" height="0.5"/>
	</g>
</g>
<g>
	<g>
		<path fill="#6E6C6C" d="M66.011,32.681V6.001V32.681z"/>
	</g>
	<g>
		<rect x="65.761" y="6.001" fill="#6E6C6C" width="0.5" height="26.68"/>
	</g>
</g>
<g>
	<g>
		<path fill="#6E6C6C" d="M66.011,32.681h6.68H66.011z"/>
	</g>
	<g>
		<rect x="66.011" y="32.431" fill="#6E6C6C" width="6.68" height="0.5"/>
	</g>
</g>
<g>
	<polygon fill="#6E6C6C" points="84.655,32.431 92.462,32.431 92.462,6.111 86.281,8.87 86.281,24.592 78.21,12.471 72.922,14.831 	
		"/>
</g>
<g>
	<g>
		<path fill="#6E6C6C" d="M72.69,32.681V14.936V32.681z"/>
	</g>
	<g>
		<rect x="72.44" y="14.936" fill="#6E6C6C" width="0.5" height="17.745"/>
	</g>
</g>
<g>
	<g>
		<path fill="#6E6C6C" d="M86.031,6h6.681H86.031z"/>
	</g>
	<g>
		<rect x="86.031" y="5.75" fill="#6E6C6C" width="6.681" height="0.5"/>
	</g>
</g>
<g>
	<g>
		<path fill="#6E6C6C" d="M66.011,6h8.19H66.011z"/>
	</g>
	<g>
		<rect x="66.011" y="5.75" fill="#6E6C6C" width="8.19" height="0.5"/>
	</g>
</g>
<g>
	<g>
		<path fill="#6E6C6C" d="M42.659,6H56H42.659z"/>
	</g>
	<g>
		<rect x="42.659" y="5.75" fill="#6E6C6C" width="13.341" height="0.5"/>
	</g>
</g>
<g>
	<g>
		<path fill="#6E6C6C" d="M62.681,26.021V12.66V26.021z"/>
	</g>
	<g>
		<rect x="62.431" y="12.66" fill="#6E6C6C" width="0.5" height="13.36"/>
	</g>
</g>
<g>
	<g>
		<path fill="#6E6C6C" d="M35.999,26.021V12.66V26.021z"/>
	</g>
	<g>
		<rect x="35.749" y="12.66" fill="#6E6C6C" width="0.5" height="13.36"/>
	</g>
</g>
<g>
	<g>
		<path fill="#6E6C6C" d="M42.659,23.249v-7.817V23.249z"/>
	</g>
	<g>
		<rect x="42.409" y="15.432" fill="#6E6C6C" width="0.5" height="7.817"/>
	</g>
</g>
<g>
	<g>
		<path fill="#6E6C6C" d="M45.432,26.021h7.816H45.432z"/>
	</g>
	<g>
		<rect x="45.432" y="25.771" fill="#6E6C6C" width="7.816" height="0.5"/>
	</g>
</g>
<g>
	<g>
		<path fill="#6E6C6C" d="M56,23.249v-7.817V23.249z"/>
	</g>
	<g>
		<rect x="55.75" y="15.432" fill="#6E6C6C" width="0.5" height="7.817"/>
	</g>
</g>
<g>
	<g>
		<path fill="#6E6C6C" d="M45.432,12.66h7.816H45.432z"/>
	</g>
	<g>
		<rect x="45.432" y="12.41" fill="#6E6C6C" width="7.816" height="0.5"/>
	</g>
</g>
<g>
	<g>
		<path fill="#6E6C6C" d="M42.659,32.681H56H42.659z"/>
	</g>
	<g>
		<rect x="42.659" y="32.431" fill="#6E6C6C" width="13.341" height="0.5"/>
	</g>
</g>
<g>
	<g>
		<line fill="#6E6C6C" x1="42.66" y1="6" x2="36" y2="12.66"/>
	</g>
	<g>
		
			<rect x="39.08" y="4.621" transform="matrix(0.7071 0.7071 -0.7071 0.7071 18.1169 -25.0778)" fill="#6E6C6C" width="0.5" height="9.419"/>
	</g>
</g>
<g>
	<g>
		<line fill="#6E6C6C" x1="45.432" y1="12.66" x2="42.66" y2="15.431"/>
	</g>
	<g>
		
			<rect x="43.796" y="12.086" transform="matrix(0.7071 0.7071 -0.7071 0.7071 22.8323 -27.0313)" fill="#6E6C6C" width="0.5" height="3.919"/>
	</g>
</g>
<g>
	<g>
		<line fill="#6E6C6C" x1="36" y1="26.021" x2="42.66" y2="32.681"/>
	</g>
	<g>
		
			<rect x="34.621" y="29.101" transform="matrix(0.7072 0.7071 -0.7071 0.7072 32.2703 -19.2133)" fill="#6E6C6C" width="9.418" height="0.5"/>
	</g>
</g>
<g>
	<g>
		<line fill="#6E6C6C" x1="42.66" y1="23.249" x2="45.431" y2="26.021"/>
	</g>
	<g>
		
			<rect x="42.086" y="24.385" transform="matrix(0.707 0.7072 -0.7072 0.707 30.3286 -23.9319)" fill="#6E6C6C" width="3.919" height="0.5"/>
	</g>
</g>
<g>
	<g>
		<line fill="#6E6C6C" x1="56" y1="32.681" x2="62.681" y2="26.021"/>
	</g>
	<g>
		
			<rect x="59.091" y="24.634" transform="matrix(0.7061 0.7081 -0.7081 0.7061 38.2211 -33.3926)" fill="#6E6C6C" width="0.499" height="9.433"/>
	</g>
</g>
<g>
	<g>
		<line fill="#6E6C6C" x1="53.249" y1="26.021" x2="56" y2="23.25"/>
	</g>
	<g>
		
			<rect x="54.375" y="22.683" transform="matrix(0.71 0.7042 -0.7042 0.71 33.1864 -31.3215)" fill="#6E6C6C" width="0.499" height="3.905"/>
	</g>
</g>
<g>
	<g>
		<line fill="#6E6C6C" x1="56" y1="6" x2="62.681" y2="12.66"/>
	</g>
	<g>
		
			<rect x="54.624" y="9.08" transform="matrix(0.7082 0.706 -0.706 0.7082 23.9031 -39.1728)" fill="#6E6C6C" width="9.433" height="0.5"/>
	</g>
</g>
<g>
	<g>
		<line fill="#6E6C6C" x1="53.249" y1="12.66" x2="56" y2="15.431"/>
	</g>
	<g>
		
			<rect x="52.672" y="13.795" transform="matrix(0.7046 0.7096 -0.7096 0.7046 26.1027 -34.6128)" fill="#6E6C6C" width="3.904" height="0.5"/>
	</g>
</g>
<g>
	<g>
		<polyline fill="#6E6C6C" points="32.649,16.011 32.649,6.001 5.968,6.001 5.968,32.681 32.649,32.681 32.649,22.671 
			25.989,22.671 		"/>
	</g>
	<g>
		<polygon fill="#6E6C6C" points="32.899,32.931 5.718,32.931 5.718,5.751 32.899,5.751 32.899,16.011 32.399,16.011 32.399,6.251 
			6.218,6.251 6.218,32.431 32.399,32.431 32.399,22.921 25.989,22.921 25.989,22.421 32.899,22.421 		"/>
	</g>
</g>
<g>
	<g>
		<polyline fill="#6E6C6C" points="181.399,6 208.08,6 208.08,12.66 198.069,12.66 		"/>
	</g>
	<g>
		<polygon fill="#6E6C6C" points="208.33,12.91 198.069,12.91 198.069,12.41 207.83,12.41 207.83,6.25 181.399,6.25 181.399,5.75 
			208.33,5.75 		"/>
	</g>
</g>
<g>
	<g>
		<path fill="#6E6C6C" d="M191.39,32.681V12.66V32.681z"/>
	</g>
	<g>
		<rect x="191.14" y="12.66" fill="#6E6C6C" width="0.5" height="20.021"/>
	</g>
</g>
<g>
	<g>
		<path fill="#6E6C6C" d="M198.069,32.681V12.66V32.681z"/>
	</g>
	<g>
		<rect x="197.819" y="12.66" fill="#6E6C6C" width="0.5" height="20.021"/>
	</g>
</g>
<g>
	<g>
		<polyline fill="#6E6C6C" points="191.39,12.66 181.399,12.66 181.399,6 		"/>
	</g>
	<g>
		<polygon fill="#6E6C6C" points="191.39,12.91 181.149,12.91 181.149,6 181.649,6 181.649,12.41 191.39,12.41 		"/>
	</g>
</g>
<g>
	<g>
		<path fill="#6E6C6C" d="M191.39,32.681h6.68H191.39z"/>
	</g>
	<g>
		<rect x="191.39" y="32.431" fill="#6E6C6C" width="6.68" height="0.5"/>
	</g>
</g>
<g>
	<g>
		<polyline fill="#6E6C6C" points="178.049,16.011 178.049,6.001 151.368,6.001 151.368,32.681 178.049,32.681 178.049,22.671 
			171.389,22.671 		"/>
	</g>
	<g>
		<polygon fill="#6E6C6C" points="178.299,32.931 151.118,32.931 151.118,5.751 178.299,5.751 178.299,16.011 177.799,16.011 
			177.799,6.251 151.618,6.251 151.618,32.431 177.799,32.431 177.799,22.921 171.389,22.921 171.389,22.421 178.299,22.421 		"/>
	</g>
</g>
<g>
	<g>
		<line fill="#6E6C6C" x1="121.337" y1="32.681" x2="132.588" y2="6"/>
	</g>
	<g>
		
			<rect x="126.712" y="4.862" transform="matrix(0.9221 0.3868 -0.3868 0.9221 17.3655 -47.6077)" fill="#6E6C6C" width="0.5" height="28.956"/>
	</g>
</g>
<g>
	<g>
		<line fill="#6E6C6C" x1="128.018" y1="32.681" x2="131.803" y2="26.021"/>
	</g>
	<g>
		
			<rect x="129.66" y="25.52" transform="matrix(0.8702 0.4928 -0.4928 0.8702 31.3302 -60.2045)" fill="#6E6C6C" width="0.499" height="7.661"/>
	</g>
</g>
<g>
	<g>
		<line fill="#6E6C6C" x1="136.787" y1="6" x2="148.018" y2="32.681"/>
	</g>
	<g>
		
			<rect x="127.929" y="19.09" transform="matrix(0.388 0.9217 -0.9217 0.388 104.9812 -119.4119)" fill="#6E6C6C" width="28.947" height="0.5"/>
	</g>
</g>
<g>
	<g>
		<line fill="#6E6C6C" x1="137.573" y1="26.021" x2="141.357" y2="32.681"/>
	</g>
	<g>
		
			<rect x="135.635" y="29.101" transform="matrix(0.494 0.8695 -0.8695 0.494 96.0872 -106.4079)" fill="#6E6C6C" width="7.66" height="0.499"/>
	</g>
</g>
<g>
	<g>
		<path fill="#6E6C6C" d="M141.357,32.681h6.66H141.357z"/>
	</g>
	<g>
		<rect x="141.357" y="32.431" fill="#6E6C6C" width="6.66" height="0.5"/>
	</g>
</g>
<g>
	<g>
		<path fill="#6E6C6C" d="M121.336,32.681h6.682H121.336z"/>
	</g>
	<g>
		<rect x="121.336" y="32.431" fill="#6E6C6C" width="6.682" height="0.5"/>
	</g>
</g>
<g>
	<g>
		<path fill="#6E6C6C" d="M131.803,26.021h5.77H131.803z"/>
	</g>
	<g>
		<rect x="131.803" y="25.771" fill="#6E6C6C" width="5.77" height="0.5"/>
	</g>
</g>
<g>
	<g>
		<polygon fill="#6E6C6C" points="131.803,20.912 134.678,15.824 137.573,20.912 		"/>
	</g>
	<g>
		<path fill="#6E6C6C" d="M138.003,21.162h-6.628l3.302-5.845L138.003,21.162z M132.231,20.662h4.913l-2.465-4.331L132.231,20.662z"
			/>
	</g>
</g>
<g>
	<g>
		<path fill="#6E6C6C" d="M132.588,6h4.198H132.588z"/>
	</g>
	<g>
		<rect x="132.588" y="5.75" fill="#6E6C6C" width="4.198" height="0.5"/>
	</g>
</g>
<g>
	<g>
		<polygon fill="#6E6C6C" points="86.156,24.179 74.097,6.069 74.305,5.931 85.906,23.353 85.906,6 86.156,6 		"/>
	</g>
	<g>
		<path fill="#6E6C6C" d="M86.406,25.005L73.82,6.104l0.624-0.416l11.212,16.838V5.875h0.75V25.005z M74.167,6.173l11.99,18.005
			V6.125h-0.25v17.227L74.375,6.035L74.167,6.173z"/>
	</g>
</g>
</svg>
