<?xml version="1.0" encoding="utf-8"?>
<!-- Generator: Adobe Illustrator 16.0.0, SVG Export Plug-In . SVG Version: 6.00 Build 0)  -->
<!DOCTYPE svg PUBLIC "-//W3C//DTD SVG 1.1//EN" "http://www.w3.org/Graphics/SVG/1.1/DTD/svg11.dtd">
<svg version="1.1" id="Layer_1" xmlns="http://www.w3.org/2000/svg" xmlns:xlink="http://www.w3.org/1999/xlink" x="0px" y="0px"
	 width="214px" height="40px" viewBox="0 0 214 40" enable-background="new 0 0 214 40" xml:space="preserve">
<g>
	<polygon fill="#6E6C6C" points="123.243,13.16 112.732,13.16 112.732,12.16 122.243,12.16 122.243,6.5 96.042,6.5 96.042,5.5 
		123.243,5.5 	"/>
</g>
<g>
	<rect x="105.553" y="12.66" fill="#6E6C6C" width="1" height="20.021"/>
</g>
<g>
	<rect x="112.232" y="12.66" fill="#6E6C6C" width="1" height="20.021"/>
</g>
<g>
	<polygon fill="#6E6C6C" points="106.053,13.16 95.542,13.16 95.542,6 96.542,6 96.542,12.16 106.053,12.16 	"/>
</g>
<g>
	<rect x="106.052" y="32.181" fill="#6E6C6C" width="6.681" height="1"/>
</g>
<g>
	<rect x="65.511" y="6" fill="#6E6C6C" width="1" height="26.681"/>
</g>
<g>
	<polygon fill="#6E6C6C" points="86.531,25.419 73.785,6.277 74.617,5.723 85.531,22.113 85.531,6 86.531,6 	"/>
</g>
<g>
	<polygon fill="#6E6C6C" points="93.212,33.181 84.254,33.181 72.274,15.212 73.106,14.657 84.789,32.181 92.212,32.181 92.212,6 
		93.212,6 	"/>
</g>
<g>
	<rect x="66.01" y="32.181" fill="#6E6C6C" width="6.682" height="1"/>
</g>
<g>
	<rect x="72.191" y="14.935" fill="#6E6C6C" width="1" height="17.746"/>
</g>
<g>
	<rect x="86.031" y="5.5" fill="#6E6C6C" width="6.681" height="1"/>
</g>
<g>
	<rect x="66.011" y="5.5" fill="#6E6C6C" width="8.19" height="1"/>
</g>
<g>
	<rect x="42.659" y="5.5" fill="#6E6C6C" width="13.341" height="1"/>
</g>
<g>
	<rect x="62.181" y="12.66" fill="#6E6C6C" width="1" height="13.36"/>
</g>
<g>
	<rect x="35.5" y="12.66" fill="#6E6C6C" width="1" height="13.36"/>
</g>
<g>
	<rect x="42.16" y="15.432" fill="#6E6C6C" width="1" height="7.817"/>
</g>
<g>
	<rect x="45.432" y="25.521" fill="#6E6C6C" width="7.817" height="1"/>
</g>
<g>
	<rect x="55.5" y="15.432" fill="#6E6C6C" width="1" height="7.817"/>
</g>
<g>
	<rect x="45.431" y="12.16" fill="#6E6C6C" width="7.818" height="1"/>
</g>
<g>
	<rect x="42.66" y="32.181" fill="#6E6C6C" width="13.34" height="1"/>
</g>
<g>
	
		<rect x="38.83" y="4.621" transform="matrix(0.7071 0.7071 -0.7071 0.7071 18.1169 -25.0778)" fill="#6E6C6C" width="1" height="9.419"/>
</g>
<g>
	
		<rect x="43.546" y="12.086" transform="matrix(0.7071 0.7071 -0.7071 0.7071 22.8323 -27.0313)" fill="#6E6C6C" width="1" height="3.919"/>
</g>
<g>
	
		<rect x="34.621" y="28.851" transform="matrix(0.7072 0.7071 -0.7071 0.7072 32.2703 -19.2133)" fill="#6E6C6C" width="9.418" height="1"/>
</g>
<g>
	
		<rect x="42.086" y="24.135" transform="matrix(0.707 0.7072 -0.7072 0.707 30.3286 -23.9319)" fill="#6E6C6C" width="3.919" height="1"/>
</g>
<g>
	
		<rect x="58.84" y="24.634" transform="matrix(0.7056 0.7086 -0.7086 0.7056 38.2643 -33.4071)" fill="#6E6C6C" width="1.001" height="9.433"/>
</g>
<g>
	
		<rect x="54.124" y="22.683" transform="matrix(0.7095 0.7047 -0.7047 0.7095 33.2256 -31.3364)" fill="#6E6C6C" width="1.001" height="3.904"/>
</g>
<g>
	
		<rect x="54.624" y="8.83" transform="matrix(0.7082 0.706 -0.706 0.7082 23.9031 -39.1728)" fill="#6E6C6C" width="9.433" height="1"/>
</g>
<g>
	
		<rect x="52.672" y="13.545" transform="matrix(0.7046 0.7096 -0.7096 0.7046 26.1027 -34.6128)" fill="#6E6C6C" width="3.904" height="1.001"/>
</g>
<g>
	<polygon fill="#6E6C6C" points="33.149,33.181 5.468,33.181 5.468,5.501 33.149,5.501 33.149,16.011 32.149,16.011 32.149,6.501 
		6.468,6.501 6.468,32.181 32.149,32.181 32.149,23.171 25.989,23.171 25.989,22.171 33.149,22.171 	"/>
</g>
<g>
	<rect x="25.989" y="15.511" fill="#6E6C6C" width="6.66" height="1"/>
</g>
<g>
	<polygon fill="#6E6C6C" points="26.489,26.521 12.128,26.521 12.128,12.16 26.489,12.16 26.489,16.011 25.489,16.011 25.489,13.16 
		13.128,13.16 13.128,25.521 25.489,25.521 25.489,22.67 26.489,22.67 	"/>
</g>
<g>
	<polygon fill="#6E6C6C" points="208.58,13.16 198.069,13.16 198.069,12.16 207.58,12.16 207.58,6.5 181.399,6.5 181.399,5.5 
		208.58,5.5 	"/>
</g>
<g>
	<rect x="190.89" y="12.66" fill="#6E6C6C" width="1" height="20.021"/>
</g>
<g>
	<rect x="197.57" y="12.66" fill="#6E6C6C" width="1" height="20.021"/>
</g>
<g>
	<polygon fill="#6E6C6C" points="191.39,13.16 180.899,13.16 180.899,6 181.899,6 181.899,12.16 191.39,12.16 	"/>
</g>
<g>
	<rect x="191.389" y="32.181" fill="#6E6C6C" width="6.682" height="1"/>
</g>
<g>
	<polygon fill="#6E6C6C" points="178.549,33.181 150.868,33.181 150.868,5.501 178.549,5.501 178.549,16.011 177.549,16.011 
		177.549,6.501 151.868,6.501 151.868,32.181 177.549,32.181 177.549,23.171 171.389,23.171 171.389,22.171 178.549,22.171 	"/>
</g>
<g>
	<rect x="171.389" y="15.511" fill="#6E6C6C" width="6.66" height="1"/>
</g>
<g>
	<polygon fill="#6E6C6C" points="171.889,26.521 157.528,26.521 157.528,12.16 171.889,12.16 171.889,16.011 170.889,16.011 
		170.889,13.16 158.528,13.16 158.528,25.521 170.889,25.521 170.889,22.67 171.889,22.67 	"/>
</g>
<g>
	
		<rect x="126.462" y="4.862" transform="matrix(0.9215 0.3885 -0.3885 0.9215 17.4863 -47.8049)" fill="#6E6C6C" width="1" height="28.956"/>
</g>
<g>
	
		<rect x="129.41" y="25.52" transform="matrix(0.8693 0.4942 -0.4942 0.8693 31.4826 -60.3719)" fill="#6E6C6C" width="1" height="7.661"/>
</g>
<g>
	
		<rect x="127.928" y="18.841" transform="matrix(0.3879 0.9217 -0.9217 0.3879 104.9834 -119.4121)" fill="#6E6C6C" width="28.948" height="1"/>
</g>
<g>
	
		<rect x="135.635" y="28.851" transform="matrix(0.494 0.8695 -0.8695 0.494 96.0872 -106.4079)" fill="#6E6C6C" width="7.66" height="1"/>
</g>
<g>
	<rect x="141.357" y="32.181" fill="#6E6C6C" width="6.66" height="1"/>
</g>
<g>
	<rect x="121.336" y="32.181" fill="#6E6C6C" width="6.682" height="1"/>
</g>
<g>
	<rect x="131.802" y="25.521" fill="#6E6C6C" width="5.771" height="1"/>
</g>
<g>
	<path fill="#6E6C6C" d="M138.433,21.412h-7.487l3.73-6.602L138.433,21.412z M132.66,20.412h4.054l-2.034-3.574L132.66,20.412z"/>
</g>
<g>
	<rect x="132.588" y="5.5" fill="#6E6C6C" width="4.198" height="1"/>
</g>
</svg>
