<?xml version="1.0" encoding="utf-8"?>
<!-- Generator: Adobe Illustrator 16.0.0, SVG Export Plug-In . SVG Version: 6.00 Build 0)  -->
<!DOCTYPE svg PUBLIC "-//W3C//DTD SVG 1.1//EN" "http://www.w3.org/Graphics/SVG/1.1/DTD/svg11.dtd">
<svg version="1.1" id="Layer_1" xmlns="http://www.w3.org/2000/svg" xmlns:xlink="http://www.w3.org/1999/xlink" x="0px" y="0px"
	 width="278px" height="40px" viewBox="0 0 278 40" enable-background="new 0 0 278 40" xml:space="preserve">
<g>
	<polyline fill="#6E6C6C" points="272,12.825 272,6.105 245.3,6.105 245.3,32.805 272,32.805 272,26.145 251.96,26.145 
		251.96,22.785 	"/>
	<polygon fill="#6E6C6C" points="272.25,33.055 245.05,33.055 245.05,5.855 272.25,5.855 272.25,12.825 271.75,12.825 271.75,6.355 
		245.55,6.355 245.55,32.555 271.75,32.555 271.75,26.395 251.71,26.395 251.71,22.785 252.21,22.785 252.21,25.895 272.25,25.895 	
		"/>
</g>
<g>
	<polyline fill="#6E6C6C" points="251.96,16.125 251.96,12.825 272,12.825 	"/>
	<polygon fill="#6E6C6C" points="252.21,16.125 251.71,16.125 251.71,12.575 272,12.575 272,13.075 252.21,13.075 	"/>
</g>
<g>
	<path fill="#6E6C6C" d="M258.62,22.785v-6.66V22.785z"/>
	<rect x="258.37" y="16.125" fill="#6E6C6C" width="0.5" height="6.66"/>
</g>
<g>
	<path fill="#6E6C6C" d="M251.96,16.125h6.66H251.96z"/>
	<rect x="251.96" y="15.875" fill="#6E6C6C" width="6.66" height="0.5"/>
</g>
<g>
	<path fill="#6E6C6C" d="M251.96,22.785h6.66H251.96z"/>
	<rect x="251.96" y="22.535" fill="#6E6C6C" width="6.66" height="0.5"/>
</g>
<g>
	<path fill="#6E6C6C" d="M215.24,6.105h13.38H215.24z"/>
	<rect x="215.24" y="5.855" fill="#6E6C6C" width="13.38" height="0.5"/>
</g>
<g>
	<path fill="#6E6C6C" d="M221.899,12.825h5.4H221.899z"/>
	<rect x="221.899" y="12.575" fill="#6E6C6C" width="5.4" height="0.5"/>
</g>
<g>
	<line fill="#6E6C6C" x1="228.62" y1="6.105" x2="241.939" y2="12.825"/>
	
		<rect x="227.82" y="9.215" transform="matrix(0.8928 0.4505 -0.4505 0.8928 29.4861 -104.9688)" fill="#6E6C6C" width="14.919" height="0.5"/>
</g>
<g>
	<line fill="#6E6C6C" x1="227.3" y1="12.825" x2="235.28" y2="16.125"/>
	
		<rect x="226.972" y="14.225" transform="matrix(0.9241 0.3821 -0.3821 0.9241 23.082 -87.2795)" fill="#6E6C6C" width="8.636" height="0.5"/>
</g>
<g>
	<line fill="#6E6C6C" x1="241.94" y1="19.485" x2="233.06" y2="23.925"/>
	
		<rect x="237.25" y="16.74" transform="matrix(0.4456 0.8952 -0.8952 0.4456 151.0887 -200.5797)" fill="#6E6C6C" width="0.5" height="9.929"/>
</g>
<g>
	<line fill="#6E6C6C" x1="235.28" y1="16.125" x2="227.54" y2="19.485"/>
	
		<rect x="231.16" y="13.586" transform="matrix(0.3982 0.9173 -0.9173 0.3982 155.6058 -201.5609)" fill="#6E6C6C" width="0.5" height="8.438"/>
</g>
<g>
	<polyline fill="#6E6C6C" points="233.06,23.925 241.939,32.805 235.28,32.805 	"/>
	<polygon fill="#6E6C6C" points="242.543,33.055 235.28,33.055 235.28,32.555 241.336,32.555 232.883,24.102 233.236,23.748 	"/>
</g>
<g>
	<line fill="#6E6C6C" x1="228.62" y1="26.145" x2="235.28" y2="32.805"/>
	
		<rect x="227.241" y="29.225" transform="matrix(0.7071 0.7071 -0.7071 0.7071 88.7783 -155.3806)" fill="#6E6C6C" width="9.419" height="0.5"/>
</g>
<g>
	<polyline fill="#6E6C6C" points="221.9,32.805 215.24,32.805 215.24,6.105 	"/>
	<polygon fill="#6E6C6C" points="221.9,33.055 214.99,33.055 214.99,6.105 215.49,6.105 215.49,32.555 221.9,32.555 	"/>
</g>
<g>
	<path fill="#6E6C6C" d="M221.899,32.805v-6.66V32.805z"/>
	<rect x="221.649" y="26.145" fill="#6E6C6C" width="0.5" height="6.66"/>
</g>
<g>
	<path fill="#6E6C6C" d="M221.899,19.485h5.641H221.899z"/>
	<rect x="221.899" y="19.235" fill="#6E6C6C" width="5.641" height="0.5"/>
</g>
<g>
	<path fill="#6E6C6C" d="M221.899,26.145h6.721H221.899z"/>
	<rect x="221.899" y="25.895" fill="#6E6C6C" width="6.721" height="0.5"/>
</g>
<g>
	<path fill="#6E6C6C" d="M221.899,19.485v-6.66V19.485z"/>
	<rect x="221.649" y="12.825" fill="#6E6C6C" width="0.5" height="6.66"/>
</g>
<g>
	<path fill="#6E6C6C" d="M241.94,19.485v-6.66V19.485z"/>
	<rect x="241.69" y="12.825" fill="#6E6C6C" width="0.5" height="6.66"/>
</g>
<g>
	<path fill="#6E6C6C" d="M185.18,26.145V6.105V26.145z"/>
	<rect x="184.93" y="6.105" fill="#6E6C6C" width="0.5" height="20.04"/>
</g>
<g>
	<path fill="#6E6C6C" d="M191.9,32.805h13.319H191.9z"/>
	<rect x="191.9" y="32.555" fill="#6E6C6C" width="13.319" height="0.5"/>
</g>
<g>
	<polyline fill="#6E6C6C" points="211.88,26.145 211.88,6.105 205.22,6.105 205.22,22.785 	"/>
	<polygon fill="#6E6C6C" points="212.13,26.145 211.63,26.145 211.63,6.355 205.47,6.355 205.47,22.785 204.97,22.785 204.97,5.855 
		212.13,5.855 	"/>
</g>
<g>
	<polyline fill="#6E6C6C" points="191.9,22.785 191.9,6.105 185.18,6.105 	"/>
	<polygon fill="#6E6C6C" points="192.15,22.785 191.65,22.785 191.65,6.355 185.18,6.355 185.18,5.855 192.15,5.855 	"/>
</g>
<g>
	<line fill="#6E6C6C" x1="211.88" y1="26.145" x2="205.22" y2="32.805"/>
	
		<rect x="208.3" y="24.765" transform="matrix(0.7071 0.7071 -0.7071 0.7071 81.9245 -138.8341)" fill="#6E6C6C" width="0.5" height="9.419"/>
</g>
<g>
	<line fill="#6E6C6C" x1="185.18" y1="26.145" x2="191.9" y2="32.805"/>
	
		<rect x="183.809" y="29.225" transform="matrix(0.7103 0.7039 -0.7039 0.7103 75.3674 -124.1745)" fill="#6E6C6C" width="9.462" height="0.5"/>
</g>
<g>
	<path fill="#6E6C6C" d="M195.199,26.145h6.721H195.199z"/>
	<rect x="195.199" y="25.895" fill="#6E6C6C" width="6.721" height="0.5"/>
</g>
<g>
	<line fill="#6E6C6C" x1="191.9" y1="22.785" x2="195.2" y2="26.145"/>
	
		<rect x="191.196" y="24.214" transform="matrix(0.7008 0.7134 -0.7134 0.7008 75.3612 -130.75)" fill="#6E6C6C" width="4.709" height="0.501"/>
</g>
<g>
	<line fill="#6E6C6C" x1="205.22" y1="22.785" x2="201.92" y2="26.145"/>
	
		<rect x="203.32" y="22.11" transform="matrix(0.7149 0.6993 -0.6993 0.7149 75.1494 -135.3709)" fill="#6E6C6C" width="0.5" height="4.709"/>
</g>
<g>
	<polyline fill="#6E6C6C" points="155.18,6.105 181.88,6.105 181.88,12.825 171.86,12.825 	"/>
	<polygon fill="#6E6C6C" points="182.13,13.075 171.86,13.075 171.86,12.575 181.63,12.575 181.63,6.355 155.18,6.355 155.18,5.855 
		182.13,5.855 	"/>
</g>
<g>
	<path fill="#6E6C6C" d="M165.2,32.805V12.825V32.805z"/>
	<rect x="164.95" y="12.825" fill="#6E6C6C" width="0.5" height="19.979"/>
</g>
<g>
	<path fill="#6E6C6C" d="M171.86,32.805V12.825V32.805z"/>
	<rect x="171.61" y="12.825" fill="#6E6C6C" width="0.5" height="19.979"/>
</g>
<g>
	<polyline fill="#6E6C6C" points="165.2,12.825 155.18,12.825 155.18,6.105 	"/>
	<polygon fill="#6E6C6C" points="165.2,13.075 154.93,13.075 154.93,6.105 155.43,6.105 155.43,12.575 165.2,12.575 	"/>
</g>
<g>
	<path fill="#6E6C6C" d="M165.2,32.805h6.659H165.2z"/>
	<rect x="165.2" y="32.555" fill="#6E6C6C" width="6.659" height="0.5"/>
</g>
<g>
	<path fill="#6E6C6C" d="M125.12,32.805h6.719H125.12z"/>
	<rect x="125.12" y="32.555" fill="#6E6C6C" width="6.719" height="0.5"/>
</g>
<g>
	<path fill="#6E6C6C" d="M125.12,6.105h20.039H125.12z"/>
	<rect x="125.12" y="5.855" fill="#6E6C6C" width="20.039" height="0.5"/>
</g>
<g>
	<path fill="#6E6C6C" d="M131.84,12.825H142.4H131.84z"/>
	<rect x="131.84" y="12.575" fill="#6E6C6C" width="10.561" height="0.5"/>
</g>
<g>
	<path fill="#6E6C6C" d="M125.12,32.805v-26.7V32.805z"/>
	<rect x="124.87" y="6.105" fill="#6E6C6C" width="0.5" height="26.7"/>
</g>
<g>
	<path fill="#6E6C6C" d="M131.84,19.485v-6.66V19.485z"/>
	<rect x="131.59" y="12.825" fill="#6E6C6C" width="0.5" height="6.66"/>
</g>
<g>
	<line fill="#6E6C6C" x1="145.16" y1="6.105" x2="151.82" y2="12.825"/>
	
		<rect x="143.76" y="9.215" transform="matrix(0.7039 0.7103 -0.7103 0.7039 50.6869 -102.6663)" fill="#6E6C6C" width="9.461" height="0.5"/>
</g>
<g>
	<polyline fill="#6E6C6C" points="142.4,12.825 145.16,15.585 145.16,16.725 	"/>
	<polygon fill="#6E6C6C" points="145.41,16.725 144.91,16.725 144.91,15.688 142.224,13.002 142.577,12.648 145.41,15.481 	"/>
</g>
<g>
	<line fill="#6E6C6C" x1="151.82" y1="19.485" x2="145.16" y2="26.145"/>
	
		<rect x="148.24" y="18.105" transform="matrix(0.7071 0.7071 -0.7071 0.7071 59.6242 -98.3162)" fill="#6E6C6C" width="0.5" height="9.419"/>
</g>
<g>
	<line fill="#6E6C6C" x1="145.16" y1="16.725" x2="142.399" y2="19.485"/>
	
		<rect x="143.53" y="16.153" transform="matrix(0.7071 0.7071 -0.7071 0.7071 54.9143 -96.3648)" fill="#6E6C6C" width="0.5" height="3.904"/>
</g>
<g>
	<path fill="#6E6C6C" d="M131.84,26.145h13.319H131.84z"/>
	<rect x="131.84" y="25.895" fill="#6E6C6C" width="13.319" height="0.5"/>
</g>
<g>
	<path fill="#6E6C6C" d="M131.84,19.485H142.4H131.84z"/>
	<rect x="131.84" y="19.235" fill="#6E6C6C" width="10.561" height="0.5"/>
</g>
<g>
	<path fill="#6E6C6C" d="M131.84,32.805v-6.66V32.805z"/>
	<rect x="131.59" y="26.145" fill="#6E6C6C" width="0.5" height="6.66"/>
</g>
<g>
	<path fill="#6E6C6C" d="M151.819,19.485v-6.66V19.485z"/>
	<rect x="151.569" y="12.825" fill="#6E6C6C" width="0.5" height="6.66"/>
</g>
<g>
	<polygon fill="#6E6C6C" points="95.12,6.105 101.78,6.105 101.78,26.145 115.1,26.145 115.1,19.485 121.82,19.485 121.82,32.805 
		95.12,32.805 	"/>
	<path fill="#6E6C6C" d="M122.07,33.055h-27.2v-27.2h7.16v20.04h12.819v-6.66h7.221V33.055z M95.37,32.555h26.2v-12.82h-6.221v6.66
		H101.53V6.355h-6.16V32.555z"/>
</g>
<g>
	<path fill="#6E6C6C" d="M65.06,26.145V6.105V26.145z"/>
	<rect x="64.81" y="6.105" fill="#6E6C6C" width="0.5" height="20.04"/>
</g>
<g>
	<path fill="#6E6C6C" d="M71.72,32.805H85.1H71.72z"/>
	<rect x="71.72" y="32.555" fill="#6E6C6C" width="13.38" height="0.5"/>
</g>
<g>
	<polyline fill="#6E6C6C" points="91.76,26.145 91.76,6.105 85.1,6.105 85.1,22.785 	"/>
	<polygon fill="#6E6C6C" points="92.01,26.145 91.51,26.145 91.51,6.355 85.35,6.355 85.35,22.785 84.85,22.785 84.85,5.855 
		92.01,5.855 	"/>
</g>
<g>
	<polyline fill="#6E6C6C" points="71.72,22.785 71.72,6.105 65.06,6.105 	"/>
	<polygon fill="#6E6C6C" points="71.97,22.785 71.47,22.785 71.47,6.355 65.06,6.355 65.06,5.855 71.97,5.855 	"/>
</g>
<g>
	<line fill="#6E6C6C" x1="91.76" y1="26.145" x2="85.1" y2="32.805"/>
	
		<rect x="88.18" y="24.765" transform="matrix(0.7071 0.7071 -0.7071 0.7071 46.7421 -53.8963)" fill="#6E6C6C" width="0.5" height="9.419"/>
</g>
<g>
	<line fill="#6E6C6C" x1="65.06" y1="26.145" x2="71.72" y2="32.805"/>
	
		<rect x="63.68" y="29.225" transform="matrix(0.7071 0.7071 -0.7071 0.7071 40.8726 -39.7259)" fill="#6E6C6C" width="9.419" height="0.5"/>
</g>
<g>
	<path fill="#6E6C6C" d="M75.08,26.145h6.66H75.08z"/>
	<rect x="75.08" y="25.895" fill="#6E6C6C" width="6.66" height="0.5"/>
</g>
<g>
	<line fill="#6E6C6C" x1="71.72" y1="22.785" x2="75.08" y2="26.145"/>
	
		<rect x="71.024" y="24.215" transform="matrix(0.7072 0.707 -0.707 0.7072 38.7875 -44.7309)" fill="#6E6C6C" width="4.752" height="0.5"/>
</g>
<g>
	<line fill="#6E6C6C" x1="85.1" y1="22.785" x2="81.74" y2="26.145"/>
	
		<rect x="83.17" y="22.089" transform="matrix(0.7071 0.7071 -0.7071 0.7071 41.7324 -51.8212)" fill="#6E6C6C" width="0.5" height="4.751"/>
</g>
<g>
	<polyline fill="#6E6C6C" points="61.7,16.125 61.7,6.105 35,6.105 35,32.805 61.7,32.805 61.7,22.785 55.04,22.785 	"/>
	<polygon fill="#6E6C6C" points="61.95,33.055 34.75,33.055 34.75,5.855 61.95,5.855 61.95,16.125 61.45,16.125 61.45,6.355 
		35.25,6.355 35.25,32.555 61.45,32.555 61.45,23.035 55.04,23.035 55.04,22.535 61.95,22.535 	"/>
</g>
<g>
	<polyline fill="#6E6C6C" points="31.7,12.825 31.7,6.105 5,6.105 5,19.485 	"/>
	<polygon fill="#6E6C6C" points="5.25,19.485 4.75,19.485 4.75,5.855 31.95,5.855 31.95,12.825 31.45,12.825 31.45,6.355 
		5.25,6.355 	"/>
</g>
<g>
	<path fill="#6E6C6C" d="M11.66,26.145h13.38H11.66z"/>
	<rect x="11.66" y="25.895" fill="#6E6C6C" width="13.38" height="0.5"/>
</g>
<g>
	<path fill="#6E6C6C" d="M11.66,22.785h13.38H11.66z"/>
	<rect x="11.66" y="22.535" fill="#6E6C6C" width="13.38" height="0.5"/>
</g>
<g>
	<polyline fill="#6E6C6C" points="5,32.805 31.7,32.805 31.7,16.125 	"/>
	<polygon fill="#6E6C6C" points="31.95,33.055 5,33.055 5,32.555 31.45,32.555 31.45,16.125 31.95,16.125 	"/>
</g>
<g>
	<path fill="#6E6C6C" d="M11.66,12.825H31.7H11.66z"/>
	<rect x="11.66" y="12.575" fill="#6E6C6C" width="20.04" height="0.5"/>
</g>
<g>
	<path fill="#6E6C6C" d="M11.66,16.125v-3.3V16.125z"/>
	<rect x="11.41" y="12.825" fill="#6E6C6C" width="0.5" height="3.3"/>
</g>
<g>
	<path fill="#6E6C6C" d="M5,22.785v-3.3V22.785z"/>
	<rect x="4.75" y="19.485" fill="#6E6C6C" width="0.5" height="3.3"/>
</g>
<g>
	<path fill="#6E6C6C" d="M5,26.145h6.66H5z"/>
	<rect x="5" y="25.895" fill="#6E6C6C" width="6.66" height="0.5"/>
</g>
<g>
	<path fill="#6E6C6C" d="M5,22.785h6.66H5z"/>
	<rect x="5" y="22.535" fill="#6E6C6C" width="6.66" height="0.5"/>
</g>
<g>
	<path fill="#6E6C6C" d="M11.66,16.125H31.7H11.66z"/>
	<rect x="11.66" y="15.875" fill="#6E6C6C" width="20.04" height="0.5"/>
</g>
<g>
	<path fill="#6E6C6C" d="M25.04,26.145v-3.359V26.145z"/>
	<rect x="24.79" y="22.785" fill="#6E6C6C" width="0.5" height="3.359"/>
</g>
<g>
	<path fill="#6E6C6C" d="M5,32.805v-6.66V32.805z"/>
	<rect x="4.75" y="26.145" fill="#6E6C6C" width="0.5" height="6.66"/>
</g>
</svg>
