<?xml version="1.0" encoding="utf-8"?>
<!-- Generator: Adobe Illustrator 16.0.0, SVG Export Plug-In . SVG Version: 6.00 Build 0)  -->
<!DOCTYPE svg PUBLIC "-//W3C//DTD SVG 1.1//EN" "http://www.w3.org/Graphics/SVG/1.1/DTD/svg11.dtd">
<svg version="1.1" id="Layer_1" xmlns="http://www.w3.org/2000/svg" xmlns:xlink="http://www.w3.org/1999/xlink" x="0px" y="0px"
	 width="812.102px" height="92.865px" viewBox="0 0 812.102 92.865" enable-background="new 0 0 812.102 92.865"
	 xml:space="preserve">
<g>
	<g>
		<polygon fill="#6D6B6B" points="786.5,74.414 747.055,74.414 747.055,47.761 760.348,47.761 760.348,48.761 748.055,48.761 
			748.055,73.414 785.5,73.414 785.5,35.398 786.5,35.398 		"/>
		<path d="M786.75,74.664h-39.945V47.511h13.793v1.5h-12.293v24.153h36.945V35.148h1.5V74.664z M747.305,74.164h38.945V35.648h-0.5
			v38.016h-37.945V48.511h12.293v-0.5h-12.793V74.164z"/>
	</g>
</g>
<g>
	<g>
		<rect x="772.709" y="35.398" fill="#6D6B6B" width="1" height="25.654"/>
		<path d="M773.959,61.302h-1.5V35.148h1.5V61.302z M772.959,60.802h0.5V35.648h-0.5V60.802z"/>
	</g>
</g>
<g>
	<g>
		<rect x="759.848" y="48.261" fill="#6D6B6B" width="1" height="12.791"/>
		<path d="M761.098,61.302h-1.5V48.011h1.5V61.302z M760.098,60.802h0.5V48.511h-0.5V60.802z"/>
	</g>
</g>
<g>
	<g>
		<polygon fill="#6D6B6B" points="773.209,35.898 759.848,35.898 759.848,22.107 798.863,22.107 798.863,23.107 760.848,23.107 
			760.848,34.898 773.209,34.898 		"/>
		<path d="M773.459,36.148h-13.861V21.857h39.516v1.5h-38.016v11.291h12.361V36.148z M760.098,35.648h12.861v-0.5h-12.361V22.857
			h38.016v-0.5h-38.516V35.648z"/>
	</g>
</g>
<g>
	<g>
		<rect x="786" y="34.898" fill="#6D6B6B" width="12.863" height="1"/>
		<path d="M799.113,36.148H785.75v-1.5h13.363V36.148z M786.25,35.648h12.363v-0.5H786.25V35.648z"/>
	</g>
</g>
<g>
	<g>
		<rect x="798.363" y="22.607" fill="#6D6B6B" width="1" height="12.791"/>
		<path d="M799.613,35.648h-1.5V22.357h1.5V35.648z M798.613,35.148h0.5V22.857h-0.5V35.148z"/>
	</g>
</g>
<g>
	<g>
		<rect x="760.348" y="60.552" fill="#6D6B6B" width="12.861" height="1"/>
		<path d="M773.459,61.802h-13.361v-1.5h13.361V61.802z M760.598,61.302h12.361v-0.5h-12.361V61.302z"/>
	</g>
</g>
<g>
	<g>
		
			<rect x="700.163" y="20.427" transform="matrix(-0.9215 -0.3885 0.3885 -0.9215 1327.5388 364.9449)" fill="#6D6B6B" width="1" height="55.68"/>
		<path d="M690.442,74.441l-1.383-0.581l0.097-0.23l21.729-51.539l1.382,0.583l-0.097,0.23L690.442,74.441z M689.714,73.593
			l0.461,0.194l21.438-50.846l-0.462-0.194L689.714,73.593z"/>
	</g>
</g>
<g>
	<g>
		
			<rect x="705.724" y="60.072" transform="matrix(-0.8705 -0.4922 0.4922 -0.8705 1287.7542 473.821)" fill="#6D6B6B" width="1.002" height="14.777"/>
		<path d="M703.121,74.48l-1.307-0.738l7.515-13.302l1.308,0.739L703.121,74.48z M702.496,73.553l0.436,0.246l7.023-12.43
			l-0.437-0.247L702.496,73.553z"/>
	</g>
</g>
<g>
	<g>
		
			<rect x="702.479" y="47.764" transform="matrix(-0.3884 -0.9215 0.9215 -0.3884 969.5059 739.9891)" fill="#6D6B6B" width="55.678" height="1"/>
		<path d="M740.537,74.439l-0.098-0.23l-21.722-51.537l1.381-0.583l0.098,0.23l21.723,51.537L740.537,74.439z M719.372,22.938
			l21.431,50.847l0.462-0.194l-21.432-50.846L719.372,22.938z"/>
	</g>
</g>
<g>
	<g>
		
			<rect x="717.207" y="66.985" transform="matrix(-0.4925 -0.8703 0.8703 -0.4925 1022.7143 731.3524)" fill="#6D6B6B" width="14.779" height="1.001"/>
		<path d="M727.705,74.504l-7.524-13.298l1.307-0.739l7.524,13.298L727.705,74.504z M720.862,61.396l7.032,12.427l0.436-0.247
			l-7.032-12.427L720.862,61.396z"/>
	</g>
</g>
<g>
	<g>
		<rect x="728.262" y="73.414" fill="#6D6B6B" width="12.863" height="1"/>
		<path d="M741.375,74.664h-13.363v-1.5h13.363V74.664z M728.512,74.164h12.363v-0.5h-12.363V74.164z"/>
	</g>
</g>
<g>
	<g>
		<rect x="689.816" y="73.414" fill="#6D6B6B" width="12.793" height="1"/>
		<path d="M702.859,74.664h-13.293v-1.5h13.293V74.664z M690.066,74.164h12.293v-0.5h-12.293V74.164z"/>
	</g>
</g>
<g>
	<g>
		<rect x="709.889" y="60.552" fill="#6D6B6B" width="11.095" height="1"/>
		<path d="M721.233,61.802h-11.595v-1.5h11.595V61.802z M710.139,61.302h10.595v-0.5h-10.595V61.302z"/>
	</g>
</g>
<g>
	<g>
		<path fill="#6D6B6B" d="M721.836,51.8h-12.807l6.443-11.34L721.836,51.8z M710.748,50.8h9.381l-4.661-8.306L710.748,50.8z"/>
		<path d="M722.263,52.05H708.6l6.874-12.098L722.263,52.05z M709.459,51.55h11.95l-5.938-10.582L709.459,51.55z M720.556,51.05
			h-10.237l5.15-9.064L720.556,51.05z M711.178,50.55h8.524l-4.235-7.547L711.178,50.55z"/>
	</g>
</g>
<g>
	<g>
		<rect x="711.443" y="22.107" fill="#6D6B6B" width="8.055" height="1"/>
		<path d="M719.748,23.357h-8.555v-1.5h8.555V23.357z M711.693,22.857h7.555v-0.5h-7.555V22.857z"/>
	</g>
</g>
<g>
	<g>
		<rect x="632.078" y="22.107" fill="#6D6B6B" width="25.654" height="1"/>
		<path d="M657.982,23.357h-26.154v-1.5h26.154V23.357z M632.328,22.857h25.154v-0.5h-25.154V22.857z"/>
	</g>
</g>
<g>
	<g>
		<rect x="644.871" y="34.898" fill="#6D6B6B" width="10.318" height="1"/>
		<path d="M655.439,36.148h-10.818v-1.5h10.818V36.148z M645.121,35.648h9.818v-0.5h-9.818V35.648z"/>
	</g>
</g>
<g>
	<g>
		
			<rect x="656.206" y="28.499" transform="matrix(-0.8949 -0.4462 0.4462 -0.8949 1257.6851 354.1469)" fill="#6D6B6B" width="28.665" height="0.999"/>
		<path d="M683.255,36.176l-0.224-0.112l-25.877-12.902l0.668-1.342l0.224,0.112l25.877,12.902L683.255,36.176z M657.824,22.938
			l25.206,12.567l0.223-0.446l-25.206-12.567L657.824,22.938z"/>
	</g>
</g>
<g>
	<g>
		
			<rect x="654.539" y="38.114" transform="matrix(-0.9222 -0.3867 0.3867 -0.9222 1259.2163 330.5366)" fill="#6D6B6B" width="16.631" height="1"/>
		<path d="M670.463,42.618l-15.798-6.624l0.58-1.383l15.798,6.624L670.463,42.618z M655.319,35.727l14.876,6.237l0.193-0.461
			l-14.876-6.237L655.319,35.727z"/>
	</g>
</g>
<g>
	<g>
		
			<rect x="674.329" y="42.957" transform="matrix(-0.4472 -0.8944 0.8944 -0.4472 929.6488 679.5878)" fill="#6D6B6B" width="1" height="19.119"/>
		<path d="M666.391,57.574l-0.671-1.341l0.224-0.112l17.323-8.662l0.671,1.341l-0.224,0.112L666.391,57.574z M666.39,56.456
			l0.224,0.448l16.654-8.327l-0.224-0.448L666.39,56.456z"/>
	</g>
</g>
<g>
	<g>
		
			<rect x="662.634" y="36.948" transform="matrix(-0.3982 -0.9173 0.9173 -0.3982 885.8539 671.2714)" fill="#6D6B6B" width="1.001" height="16.173"/>
		<path d="M655.786,49.043l-0.598-1.377l15.295-6.639l0.598,1.377L655.786,49.043z M655.847,47.926l0.199,0.459l14.377-6.241
			l-0.199-0.459L655.847,47.926z"/>
	</g>
</g>
<g>
	<g>
		<polygon fill="#6D6B6B" points="684.594,74.414 670.523,74.414 670.523,73.414 682.18,73.414 665.93,57.165 666.637,56.458 		"/>
		<path d="M685.197,74.664h-14.924v-1.5h11.303l-16-15.999l1.061-1.061L685.197,74.664z M670.773,74.164h13.217l-17.354-17.353
			l-0.354,0.354l16.5,16.499h-12.01V74.164z"/>
	</g>
</g>
<g>
	<g>
		
			<rect x="655.03" y="67.001" transform="matrix(-0.7051 -0.7091 0.7091 -0.7051 1084.4807 586.0234)" fill="#6D6B6B" width="18.14" height="1"/>
		<path d="M670.14,74.639l-0.177-0.177l-12.967-13.041l1.064-1.058l0.177,0.177l12.966,13.041L670.14,74.639z M657.703,61.423
			l12.438,12.509l0.354-0.353L658.059,61.07L657.703,61.423z"/>
	</g>
</g>
<g>
	<g>
		<polygon fill="#6D6B6B" points="644.871,74.414 631.578,74.414 631.578,22.607 632.578,22.607 632.578,73.414 644.871,73.414 		
			"/>
		<path d="M645.121,74.664h-13.793V22.357h1.5v50.807h12.293V74.664z M631.828,74.164h12.793v-0.5h-12.293V22.857h-0.5V74.164z"/>
	</g>
</g>
<g>
	<g>
		<rect x="644.371" y="61.052" fill="#6D6B6B" width="1" height="12.862"/>
		<path d="M645.621,74.164h-1.5V60.802h1.5V74.164z M644.621,73.664h0.5V61.302h-0.5V73.664z"/>
	</g>
</g>
<g>
	<g>
		<rect x="644.871" y="47.761" fill="#6D6B6B" width="10.812" height="1"/>
		<path d="M655.933,49.011h-11.312v-1.5h11.312V49.011z M645.121,48.511h10.312v-0.5h-10.312V48.511z"/>
	</g>
</g>
<g>
	<g>
		<rect x="644.871" y="60.552" fill="#6D6B6B" width="12.861" height="1"/>
		<path d="M657.982,61.802h-13.361v-1.5h13.361V61.802z M645.121,61.302h12.361v-0.5h-12.361V61.302z"/>
	</g>
</g>
<g>
	<g>
		<rect x="644.371" y="35.398" fill="#6D6B6B" width="1" height="12.862"/>
		<path d="M645.621,48.51h-1.5V35.148h1.5V48.51z M644.621,48.01h0.5V35.648h-0.5V48.01z"/>
	</g>
</g>
<g>
	<g>
		<rect x="682.887" y="35.398" fill="#6D6B6B" width="1" height="12.862"/>
		<path d="M684.137,48.51h-1.5V35.148h1.5V48.51z M683.137,48.01h0.5V35.648h-0.5V48.01z"/>
	</g>
</g>
<g>
	<g>
		<polygon fill="#6D6B6B" points="574.842,48.261 573.842,48.261 573.842,22.107 626.148,22.107 626.148,35.398 625.148,35.398 
			625.148,23.107 574.842,23.107 		"/>
		<path d="M575.092,48.511h-1.5V21.857h52.807v13.791h-1.5V23.357h-49.807V48.511z M574.092,48.011h0.5V22.857h50.807v12.291h0.5
			V22.357h-51.807V48.011z"/>
	</g>
</g>
<g>
	<g>
		<rect x="587.133" y="60.552" fill="#6D6B6B" width="25.652" height="1"/>
		<path d="M613.035,61.802h-26.152v-1.5h26.152V61.802z M587.383,61.302h25.152v-0.5h-25.152V61.302z"/>
	</g>
</g>
<g>
	<g>
		<rect x="587.133" y="54.19" fill="#6D6B6B" width="25.652" height="1"/>
		<path d="M613.035,55.44h-26.152v-1.5h26.152V55.44z M587.383,54.94h25.152v-0.5h-25.152V54.94z"/>
	</g>
</g>
<g>
	<g>
		<polygon fill="#6D6B6B" points="626.148,74.414 574.342,74.414 574.342,73.414 625.148,73.414 625.148,41.829 626.148,41.829 		
			"/>
		<path d="M626.398,74.664h-52.307v-1.5h50.807V41.579h1.5V74.664z M574.592,74.164h51.307V42.079h-0.5v31.585h-50.807V74.164z"/>
	</g>
</g>
<g>
	<g>
		<rect x="587.133" y="34.898" fill="#6D6B6B" width="38.517" height="1"/>
		<path d="M625.899,36.148h-39.017v-1.5h39.017V36.148z M587.383,35.648h38.017v-0.5h-38.017V35.648z"/>
	</g>
</g>
<g>
	<g>
		<rect x="586.633" y="35.398" fill="#6D6B6B" width="1" height="6.431"/>
		<path d="M587.883,42.079h-1.5v-6.931h1.5V42.079z M586.883,41.579h0.5v-5.931h-0.5V41.579z"/>
	</g>
</g>
<g>
	<g>
		<rect x="573.842" y="48.261" fill="#6D6B6B" width="1" height="6.432"/>
		<path d="M575.092,54.942h-1.5v-6.932h1.5V54.942z M574.092,54.442h0.5v-5.932h-0.5V54.442z"/>
	</g>
</g>
<g>
	<g>
		<rect x="574.34" y="60.552" fill="#6D6B6B" width="12.793" height="1"/>
		<path d="M587.383,61.802H574.09v-1.5h13.293V61.802z M574.59,61.302h12.293v-0.5H574.59V61.302z"/>
	</g>
</g>
<g>
	<g>
		<rect x="574.34" y="54.19" fill="#6D6B6B" width="12.793" height="1"/>
		<path d="M587.383,55.44H574.09v-1.5h13.293V55.44z M574.59,54.94h12.293v-0.5H574.59V54.94z"/>
	</g>
</g>
<g>
	<g>
		<rect x="587.133" y="41.329" fill="#6D6B6B" width="38.517" height="1"/>
		<path d="M625.899,42.579h-39.017v-1.5h39.017V42.579z M587.383,42.079h38.017v-0.5h-38.017V42.079z"/>
	</g>
</g>
<g>
	<g>
		<rect x="612.285" y="54.692" fill="#6D6B6B" width="1" height="6.358"/>
		<path d="M613.535,61.301h-1.5v-6.858h1.5V61.301z M612.535,60.801h0.5v-5.858h-0.5V60.801z"/>
	</g>
</g>
<g>
	<g>
		<rect x="573.842" y="61.052" fill="#6D6B6B" width="1" height="12.862"/>
		<path d="M575.092,74.164h-1.5V60.802h1.5V74.164z M574.092,73.664h0.5V61.302h-0.5V73.664z"/>
	</g>
</g>
<g>
	<g>
		<rect x="516.104" y="22.607" fill="#6D6B6B" width="1" height="51.307"/>
		<path d="M517.354,74.164h-1.5V22.357h1.5V74.164z M516.354,73.664h0.5V22.857h-0.5V73.664z"/>
	</g>
</g>
<g>
	<g>
		<polygon fill="#6D6B6B" points="555.547,58.394 531.875,22.884 532.707,22.33 554.547,55.09 554.547,22.607 555.547,22.607 		"/>
		<path d="M555.797,59.22l-24.269-36.405l1.248-0.831l21.521,32.28V22.357h1.5V59.22z M532.222,22.953l23.075,34.614v-34.71h-0.5
			v33.059l-22.159-33.239L532.222,22.953z"/>
	</g>
</g>
<g>
	<g>
		<polygon fill="#6D6B6B" points="568.41,74.414 551.883,74.414 528.979,40.057 529.811,39.502 552.418,73.414 567.41,73.414 
			567.41,22.607 568.41,22.607 		"/>
		<path d="M568.66,74.664h-16.911l-23.117-34.676l1.248-0.833l22.672,34.009h14.608V22.357h1.5V74.664z M552.017,74.164h16.144
			V22.857h-0.5v50.807h-15.376l-22.543-33.815l-0.416,0.278L552.017,74.164z"/>
	</g>
</g>
<g>
	<g>
		<rect x="516.604" y="73.414" fill="#6D6B6B" width="12.791" height="1"/>
		<path d="M529.645,74.664h-13.291v-1.5h13.291V74.664z M516.854,74.164h12.291v-0.5h-12.291V74.164z"/>
	</g>
</g>
<g>
	<g>
		<rect x="528.895" y="39.78" fill="#6D6B6B" width="1" height="34.134"/>
		<path d="M530.145,74.164h-1.5V39.53h1.5V74.164z M529.145,73.664h0.5V40.03h-0.5V73.664z"/>
	</g>
</g>
<g>
	<g>
		<rect x="555.049" y="22.107" fill="#6D6B6B" width="12.861" height="1"/>
		<path d="M568.16,23.357h-13.361v-1.5h13.361V23.357z M555.299,22.857h12.361v-0.5h-12.361V22.857z"/>
	</g>
</g>
<g>
	<g>
		<rect x="516.604" y="22.107" fill="#6D6B6B" width="15.688" height="1"/>
		<path d="M532.542,23.357h-16.188v-1.5h16.188V23.357z M516.854,22.857h15.188v-0.5h-15.188V22.857z"/>
	</g>
</g>
<g>
	<g>
		
			<rect x="469.128" y="20.425" transform="matrix(-0.9216 -0.3881 0.3881 -0.9216 883.7185 275.0007)" fill="#6D6B6B" width="1" height="55.681"/>
		<path d="M459.406,74.44l-1.382-0.583L479.85,22.09l1.382,0.582l-0.097,0.23L459.406,74.44z M458.679,73.592l0.462,0.194
			l21.437-50.847l-0.462-0.194L458.679,73.592z"/>
	</g>
</g>
<g>
	<g>
		
			<rect x="474.78" y="60.078" transform="matrix(-0.8705 -0.4922 0.4922 -0.8705 855.7811 360.1507)" fill="#6D6B6B" width="1.002" height="14.778"/>
		<path d="M472.177,74.487l-1.307-0.739l7.516-13.302l1.308,0.739L472.177,74.487z M471.552,73.559l0.436,0.247l7.024-12.431
			l-0.437-0.247L471.552,73.559z"/>
	</g>
</g>
<g>
	<g>
		
			<rect x="471.523" y="47.763" transform="matrix(-0.3884 -0.9215 0.9215 -0.3884 648.8448 527.166)" fill="#6D6B6B" width="55.679" height="1"/>
		<path d="M509.582,74.438l-0.098-0.23L487.763,22.67l1.381-0.583l0.098,0.23l21.723,51.537L509.582,74.438z M488.417,22.937
			l21.431,50.847l0.462-0.194l-21.432-50.847L488.417,22.937z"/>
	</g>
</g>
<g>
	<g>
		
			<rect x="486.263" y="66.984" transform="matrix(-0.4925 -0.8703 0.8703 -0.4925 678.0363 530.3553)" fill="#6D6B6B" width="14.779" height="1.001"/>
		<path d="M496.762,74.502l-7.524-13.297l1.307-0.739l7.524,13.298L496.762,74.502z M489.919,61.395l7.032,12.426l0.436-0.246
			l-7.032-12.427L489.919,61.395z"/>
	</g>
</g>
<g>
	<g>
		<rect x="497.311" y="73.414" fill="#6D6B6B" width="12.861" height="1"/>
		<path d="M510.422,74.664h-13.361v-1.5h13.361V74.664z M497.561,74.164h12.361v-0.5h-12.361V74.164z"/>
	</g>
</g>
<g>
	<g>
		<rect x="458.793" y="73.414" fill="#6D6B6B" width="12.863" height="1"/>
		<path d="M471.906,74.664h-13.363v-1.5h13.363V74.664z M459.043,74.164h12.363v-0.5h-12.363V74.164z"/>
	</g>
</g>
<g>
	<g>
		<rect x="478.936" y="60.552" fill="#6D6B6B" width="11.097" height="1"/>
		<path d="M490.282,61.802h-11.597v-1.5h11.597V61.802z M479.186,61.302h10.597v-0.5h-10.597V61.302z"/>
	</g>
</g>
<g>
	<g>
		<path fill="#6D6B6B" d="M490.883,51.8h-12.807l6.443-11.34L490.883,51.8z M479.795,50.8h9.381l-4.661-8.306L479.795,50.8z"/>
		<path d="M491.31,52.05h-13.663l6.874-12.098L491.31,52.05z M478.506,51.55h11.95l-5.938-10.582L478.506,51.55z M489.603,51.05
			h-10.237l5.15-9.064L489.603,51.05z M480.225,50.55h8.524l-4.235-7.547L480.225,50.55z"/>
	</g>
</g>
<g>
	<g>
		<rect x="480.42" y="22.107" fill="#6D6B6B" width="8.127" height="1"/>
		<path d="M488.797,23.357h-8.627v-1.5h8.627V23.357z M480.67,22.857h7.627v-0.5h-7.627V22.857z"/>
	</g>
</g>
<g>
	<g>
		<rect x="318.936" y="21.965" fill="#6D6B6B" width="25.654" height="1"/>
		<path d="M344.84,23.215h-26.154v-1.5h26.154V23.215z M319.186,22.715h25.154v-0.5h-25.154V22.715z"/>
	</g>
</g>
<g>
	<g>
		<rect x="356.881" y="35.328" fill="#6D6B6B" width="1" height="25.653"/>
		<path d="M358.131,61.231h-1.5V35.078h1.5V61.231z M357.131,60.731h0.5V35.578h-0.5V60.731z"/>
	</g>
</g>
<g>
	<g>
		<rect x="305.574" y="35.327" fill="#6D6B6B" width="1" height="25.654"/>
		<path d="M306.824,61.231h-1.5V35.077h1.5V61.231z M305.824,60.731h0.5V35.577h-0.5V60.731z"/>
	</g>
</g>
<g>
	<g>
		<rect x="318.436" y="40.628" fill="#6D6B6B" width="1" height="15.053"/>
		<path d="M319.686,55.931h-1.5V40.378h1.5V55.931z M318.686,55.431h0.5V40.878h-0.5V55.431z"/>
	</g>
</g>
<g>
	<g>
		<rect x="324.236" y="60.481" fill="#6D6B6B" width="15.053" height="1"/>
		<path d="M339.539,61.731h-15.553v-1.5h15.553V61.731z M324.486,61.231h14.553v-0.5h-14.553V61.231z"/>
	</g>
</g>
<g>
	<g>
		<rect x="344.09" y="40.628" fill="#6D6B6B" width="1" height="15.053"/>
		<path d="M345.34,55.931h-1.5V40.378h1.5V55.931z M344.34,55.431h0.5V40.878h-0.5V55.431z"/>
	</g>
</g>
<g>
	<g>
		<rect x="324.236" y="34.828" fill="#6D6B6B" width="15.053" height="1"/>
		<path d="M339.539,36.078h-15.553v-1.5h15.553V36.078z M324.486,35.578h14.553v-0.5h-14.553V35.578z"/>
	</g>
</g>
<g>
	<g>
		<rect x="318.936" y="73.344" fill="#6D6B6B" width="25.654" height="1"/>
		<path d="M344.84,74.594h-26.154v-1.5h26.154V74.594z M319.186,74.094h25.154v-0.5h-25.154V74.094z"/>
	</g>
</g>
<g>
	<g>
		
			<rect x="312.003" y="19.8" transform="matrix(-0.7069 -0.7074 0.7074 -0.7069 512.9612 270.3678)" fill="#6D6B6B" width="1" height="18.189"/>
		<path d="M306.426,36.032l-1.061-1.061l13.215-13.215l1.061,1.061L306.426,36.032z M306.072,34.972l0.354,0.354l12.508-12.508
			l-0.354-0.354L306.072,34.972z"/>
	</g>
</g>
<g>
	<g>
		
			<rect x="321.085" y="34.227" transform="matrix(-0.7071 -0.7071 0.7071 -0.7071 522.1268 292.2217)" fill="#6D6B6B" width="1" height="7.495"/>
		<path d="M319.288,41.332l-1.061-1.061l5.653-5.653l1.061,1.061L319.288,41.332z M318.935,40.271l0.354,0.354l4.946-4.946
			l-0.354-0.354L318.935,40.271z"/>
	</g>
</g>
<g>
	<g>
		
			<rect x="303.418" y="66.903" transform="matrix(-0.7071 -0.7071 0.7071 -0.7071 485.8312 336.0445)" fill="#6D6B6B" width="18.189" height="1"/>
		<path d="M318.59,74.541l-13.215-13.215l1.061-1.061L319.65,73.48L318.59,74.541z M306.082,61.326l12.508,12.508l0.354-0.354
			l-12.508-12.508L306.082,61.326z"/>
	</g>
</g>
<g>
	<g>
		
			<rect x="317.836" y="57.829" transform="matrix(-0.7072 -0.707 0.707 -0.7072 507.7584 326.9503)" fill="#6D6B6B" width="7.496" height="1"/>
		<path d="M323.881,61.686l-5.654-5.653l1.061-1.061l5.654,5.653L323.881,61.686z M318.934,56.032l4.947,4.946l0.354-0.354
			l-4.947-4.946L318.934,56.032z"/>
	</g>
</g>
<g>
	<g>
		
			<rect x="350.496" y="58.362" transform="matrix(-0.7086 -0.7056 0.7056 -0.7086 552.1188 362.891)" fill="#6D6B6B" width="1.001" height="18.14"/>
		<path d="M344.956,74.57l-1.063-1.058l13.145-13.218l1.063,1.059L344.956,74.57z M344.6,73.511l0.354,0.353l12.439-12.508
			l-0.354-0.354L344.6,73.511z"/>
	</g>
</g>
<g>
	<g>
		
			<rect x="341.438" y="54.581" transform="matrix(-0.7071 -0.7071 0.7071 -0.7071 542.4789 341.3603)" fill="#6D6B6B" width="1" height="7.496"/>
		<path d="M339.641,61.687l-1.061-1.061l5.654-5.654l1.061,1.061L339.641,61.687z M339.287,60.626l0.354,0.354l4.947-4.947
			l-0.354-0.354L339.287,60.626z"/>
	</g>
</g>
<g>
	<g>
		
			<rect x="341.9" y="28.406" transform="matrix(-0.7051 -0.7091 0.7091 -0.7051 577.936 298.1686)" fill="#6D6B6B" width="18.14" height="1"/>
		<path d="M357.01,36.044l-13.143-13.218l1.063-1.058l13.143,13.218L357.01,36.044z M344.574,22.828l12.438,12.509l0.354-0.353
			l-12.438-12.509L344.574,22.828z"/>
	</g>
</g>
<g>
	<g>
		
			<rect x="338.176" y="37.485" transform="matrix(-0.7071 -0.7071 0.7071 -0.7071 556.8419 306.6212)" fill="#6D6B6B" width="7.496" height="1.001"/>
		<path d="M344.221,41.342l-5.653-5.654l1.061-1.061l5.654,5.654L344.221,41.342z M339.274,35.688l4.946,4.947l0.354-0.354
			l-4.947-4.947L339.274,35.688z"/>
	</g>
</g>
<g>
	<g>
		<path fill="#6D6B6B" d="M300.143,74.344h-52.307V60.481h19.223V35.828h-19.223V21.965h52.307v13.862h-19.222v24.654h19.222V74.344
			z M248.836,73.344h50.307V61.481h-19.222V34.828h19.222V22.965h-50.307v11.862h19.223v26.654h-19.223V73.344z"/>
		<path d="M300.393,74.594h-52.807V60.231h19.223V36.078h-19.223V21.715h52.807v14.362h-19.222v24.154h19.222V74.594z
			 M248.086,74.094h51.807V60.731h-19.222V35.577h19.222V22.215h-51.807v13.363h19.223v25.153h-19.223V74.094z M299.393,73.594
			h-50.807V61.231h19.223V35.077h-19.223V22.715h50.807v12.363h-19.222v26.153h19.222V73.594z M249.086,73.094h49.807V61.731
			h-19.222V34.578h19.222V23.215h-49.807v11.362h19.223v27.154h-19.223V73.094z"/>
	</g>
</g>
<g>
	<g>
		<polygon fill="#6D6B6B" points="241.68,35.774 216.134,22.965 190.598,22.965 190.598,21.965 216.37,21.965 242.128,34.881 		"/>
		<path d="M241.792,36.109l-25.717-12.895h-25.727v-1.5l26.134,0.026l25.981,13.028L241.792,36.109z M190.848,22.715l25.397,0.026
			l25.323,12.697l0.224-0.446l-25.481-12.777h-25.463V22.715z"/>
	</g>
</g>
<g>
	<g>
		
			<rect x="212.279" y="38.777" transform="matrix(-0.8952 -0.4456 0.4456 -0.8952 401.6442 172.9921)" fill="#6D6B6B" width="17.761" height="1"/>
		<path d="M228.999,44.017l-16.347-8.137l0.668-1.343l0.224,0.112l16.124,8.026L228.999,44.017z M213.322,35.656l15.452,7.691
			l0.223-0.448l-15.452-7.691L213.322,35.656z"/>
	</g>
</g>
<g>
	<g>
		<polygon fill="#6D6B6B" points="216.474,74.291 216.026,73.396 241.404,60.673 241.404,35.328 242.404,35.328 242.404,61.29 		"/>
		<path d="M216.362,74.627l-0.672-1.343l25.463-12.766v-25.44h1.5v26.366L216.362,74.627z M216.361,73.507l0.225,0.448
			l25.568-12.819V35.578h-0.5v25.249L216.361,73.507z"/>
	</g>
</g>
<g>
	<g>
		
			<rect x="220.653" y="48.138" transform="matrix(-0.4456 -0.8952 0.8952 -0.4456 268.666 280.4065)" fill="#6D6B6B" width="0.999" height="17.76"/>
		<path d="M213.313,61.758l-0.668-1.342l16.347-8.137l0.668,1.342L213.313,61.758z M213.316,60.641l0.222,0.447l15.452-7.691
			l-0.222-0.447L213.316,60.641z"/>
	</g>
</g>
<g>
	<g>
		<polygon fill="#6D6B6B" points="216.251,74.344 190.097,74.344 190.097,22.465 191.097,22.465 191.097,73.344 216.251,73.344 		
			"/>
		<path d="M216.501,74.594h-26.654V22.215h1.5v50.879h25.154V74.594z M190.347,74.094h25.654v-0.5h-25.154V22.715h-0.5V74.094z"/>
	</g>
</g>
<g>
	<g>
		<polygon fill="#6D6B6B" points="213.213,61.481 202.959,61.481 202.959,35.328 203.959,35.328 203.959,60.481 213.213,60.481 		
			"/>
		<path d="M213.463,61.731h-10.754V35.078h1.5v25.153h9.254V61.731z M203.209,61.231h9.754v-0.5h-9.254V35.578h-0.5V61.231z"/>
	</g>
</g>
<g>
	<g>
		<rect x="203.459" y="34.828" fill="#6D6B6B" width="9.754" height="1"/>
		<path d="M213.463,36.078h-10.254v-1.5h10.254V36.078z M203.709,35.578h9.254v-0.5h-9.254V35.578z"/>
	</g>
</g>
<g>
	<g>
		<rect x="228.613" y="43.243" fill="#6D6B6B" width="1" height="9.822"/>
		<path d="M229.863,53.315h-1.5V42.993h1.5V53.315z M228.863,52.815h0.5v-9.322h-0.5V52.815z"/>
	</g>
</g>
<g>
	<g>
		<rect x="132.359" y="22.465" fill="#6D6B6B" width="1" height="38.517"/>
		<path d="M133.609,61.231h-1.5V22.215h1.5V61.231z M132.609,60.731h0.5V22.715h-0.5V60.731z"/>
	</g>
</g>
<g>
	<g>
		<rect x="145.721" y="73.344" fill="#6D6B6B" width="25.654" height="1"/>
		<path d="M171.625,74.594h-26.154v-1.5h26.154V74.594z M145.971,74.094h25.154v-0.5h-25.154V74.094z"/>
	</g>
</g>
<g>
	<g>
		<polygon fill="#6D6B6B" points="184.667,60.981 183.667,60.981 183.667,22.965 171.875,22.965 171.875,54.551 170.875,54.551 
			170.875,21.965 184.667,21.965 		"/>
		<path d="M184.917,61.231h-1.5V23.215h-11.292v31.586h-1.5V21.715h14.292V61.231z M183.917,60.731h0.5V22.215h-13.292v32.086h0.5
			V22.715h12.292V60.731z"/>
	</g>
</g>
<g>
	<g>
		<polygon fill="#6D6B6B" points="146.221,54.55 145.221,54.55 145.221,22.965 132.859,22.965 132.859,21.965 146.221,21.965 		"/>
		<path d="M146.471,54.8h-1.5V23.215h-12.362v-1.5h13.862V54.8z M145.471,54.3h0.5V22.215h-12.862v0.5h12.362V54.3z"/>
	</g>
</g>
<g>
	<g>
		
			<rect x="177.275" y="58.354" transform="matrix(-0.7093 -0.7049 0.7049 -0.7093 256.3428 240.5631)" fill="#6D6B6B" width="1" height="18.141"/>
		<path d="M171.734,74.562l-1.063-1.058l13.145-13.217l1.064,1.058L171.734,74.562z M171.378,73.502l0.354,0.353l12.44-12.508
			l-0.355-0.353L171.378,73.502z"/>
	</g>
</g>
<g>
	<g>
		
			<rect x="130.198" y="66.91" transform="matrix(-0.7071 -0.7071 0.7071 -0.7071 190.1233 213.5699)" fill="#6D6B6B" width="18.189" height="1"/>
		<path d="M145.37,74.548l-13.216-13.215l1.061-1.061l13.215,13.215L145.37,74.548z M132.861,61.333l12.509,12.508l0.354-0.354
			l-12.508-12.508L132.861,61.333z"/>
	</g>
</g>
<g>
	<g>
		<rect x="152.082" y="60.481" fill="#6D6B6B" width="12.862" height="1"/>
		<path d="M165.194,61.731h-13.362v-1.5h13.362V61.731z M152.332,61.231h12.362v-0.5h-12.362V61.231z"/>
	</g>
</g>
<g>
	<g>
		
			<rect x="144.387" y="57.263" transform="matrix(-0.7032 -0.711 0.711 -0.7032 212.5613 204.2526)" fill="#6D6B6B" width="9.045" height="1"/>
		<path d="M151.732,61.684l-6.712-6.786l1.066-1.055l6.712,6.786L151.732,61.684z M145.728,54.901l6.009,6.075l0.356-0.352
			l-6.009-6.075L145.728,54.901z"/>
	</g>
</g>
<g>
	<g>
		
			<rect x="167.659" y="53.216" transform="matrix(-0.7071 -0.7071 0.7071 -0.7071 246.2193 217.5147)" fill="#6D6B6B" width="1" height="9.095"/>
		<path d="M165.296,61.687l-1.061-1.061l6.785-6.785l1.061,1.061L165.296,61.687z M164.943,60.626l0.354,0.354l6.078-6.078
			l-0.354-0.354L164.943,60.626z"/>
	</g>
</g>
<g>
	<g>
		<polygon fill="#6D6B6B" points="126.928,35.828 107.206,35.828 107.206,34.828 125.928,34.828 125.928,22.965 75.121,22.965 
			75.121,21.965 126.928,21.965 		"/>
		<path d="M127.178,36.078h-20.222v-1.5h18.722V23.215H74.871v-1.5h52.307V36.078z M107.456,35.578h19.222V22.215H75.371v0.5h50.807
			v12.363h-18.722V35.578z"/>
	</g>
</g>
<g>
	<g>
		<rect x="93.844" y="35.328" fill="#6D6B6B" width="1" height="38.516"/>
		<path d="M95.094,74.094h-1.5V35.078h1.5V74.094z M94.094,73.594h0.5V35.578h-0.5V73.594z"/>
	</g>
</g>
<g>
	<g>
		<rect x="106.706" y="35.328" fill="#6D6B6B" width="1" height="38.516"/>
		<path d="M107.956,74.094h-1.5V35.078h1.5V74.094z M106.956,73.594h0.5V35.578h-0.5V73.594z"/>
	</g>
</g>
<g>
	<g>
		<polygon fill="#6D6B6B" points="94.344,35.828 74.621,35.828 74.621,22.466 75.621,22.466 75.621,34.828 94.344,34.828 		"/>
		<path d="M94.594,36.078H74.371V22.216h1.5v12.362h18.723V36.078z M74.871,35.578h19.223v-0.5H75.371V22.716h-0.5V35.578z"/>
	</g>
</g>
<g>
	<g>
		<rect x="94.344" y="73.344" fill="#6D6B6B" width="12.862" height="1"/>
		<path d="M107.456,74.594H94.094v-1.5h13.362V74.594z M94.594,74.094h12.362v-0.5H94.594V74.094z"/>
	</g>
</g>
<g>
	<g>
		<rect x="439.572" y="73.414" fill="#6D6B6B" width="12.86" height="1"/>
		<path d="M452.683,74.664h-13.36v-1.5h13.36V74.664z M439.822,74.164h12.36v-0.5h-12.36V74.164z"/>
	</g>
</g>
<g>
	<g>
		<rect x="439.072" y="61.052" fill="#6D6B6B" width="1" height="12.862"/>
		<path d="M440.322,74.164h-1.5V60.802h1.5V74.164z M439.322,73.664h0.5V61.302h-0.5V73.664z"/>
	</g>
</g>
<g>
	<g>
		<polygon fill="#6D6B6B" points="414.418,41.83 413.418,41.83 413.418,23.107 401.057,23.107 401.057,22.107 414.418,22.107 		"/>
		<path d="M414.668,42.08h-1.5V23.357h-12.361v-1.5h13.861V42.08z M413.668,41.58h0.5V22.357h-12.861v0.5h12.361V41.58z"/>
	</g>
</g>
<g>
	<g>
		<polygon fill="#6D6B6B" points="452.934,73.914 451.934,73.914 451.934,23.106 440.072,23.106 440.072,41.83 439.072,41.83 
			439.072,22.106 452.934,22.106 		"/>
		<path d="M453.184,74.164h-1.5V23.356h-11.361V42.08h-1.5V21.856h14.361V74.164z M452.184,73.664h0.5V22.356h-13.361V41.58h0.5
			V22.856h12.361V73.664z"/>
	</g>
</g>
<g>
	<g>
		<polygon fill="#6D6B6B" points="440.072,73.914 439.072,73.914 439.072,55.19 413.918,55.19 413.918,54.19 440.072,54.19 		"/>
		<path d="M440.322,74.164h-1.5V55.44h-25.154v-1.5h26.654V74.164z M439.322,73.664h0.5V54.44h-25.654v0.5h25.154V73.664z"/>
	</g>
</g>
<g>
	<g>
		<rect x="413.918" y="41.33" fill="#6D6B6B" width="25.654" height="1"/>
		<path d="M439.822,42.58h-26.154v-1.5h26.154V42.58z M414.168,42.08h25.154v-0.5h-25.154V42.08z"/>
	</g>
</g>
<g>
	<g>
		<polygon fill="#6D6B6B" points="414.418,74.415 400.557,74.415 400.557,22.606 401.557,22.606 401.557,73.415 413.418,73.415 
			413.418,54.69 414.418,54.69 		"/>
		<path d="M414.668,74.665h-14.361V22.356h1.5v50.809h11.361V54.44h1.5V74.665z M400.807,74.165h13.361V54.94h-0.5v18.725h-12.361
			V22.856h-0.5V74.165z"/>
	</g>
</g>
<g>
	<g>
		<polygon fill="#6D6B6B" points="17.883,48.188 16.883,48.188 16.883,21.966 69.19,21.966 69.19,35.328 68.19,35.328 68.19,22.966 
			17.883,22.966 		"/>
		<path d="M18.133,48.438h-1.5V21.716H69.44v13.862h-1.5V23.216H18.133V48.438z M17.133,47.938h0.5V22.716H68.44v12.362h0.5V22.216
			H17.133V47.938z"/>
	</g>
</g>
<g>
	<g>
		<rect x="30.174" y="60.481" fill="#6D6B6B" width="25.724" height="1"/>
		<path d="M56.148,61.731H29.924v-1.5h26.224V61.731z M30.424,61.231h25.224v-0.5H30.424V61.231z"/>
	</g>
</g>
<g>
	<g>
		<rect x="30.174" y="54.05" fill="#6D6B6B" width="25.724" height="1"/>
		<path d="M56.148,55.3H29.924v-1.5h26.224V55.3z M30.424,54.8h25.224v-0.5H30.424V54.8z"/>
	</g>
</g>
<g>
	<g>
		<polygon fill="#6D6B6B" points="69.19,74.344 17.383,74.344 17.383,73.344 68.19,73.344 68.19,41.758 69.19,41.758 		"/>
		<path d="M69.44,74.594H17.133v-1.5H67.94V41.508h1.5V74.594z M17.633,74.094H68.94V42.008h-0.5v31.586H17.633V74.094z"/>
	</g>
</g>
<g>
	<g>
		<rect x="30.174" y="34.828" fill="#6D6B6B" width="38.516" height="1"/>
		<path d="M68.94,36.078H29.924v-1.5H68.94V36.078z M30.424,35.578H68.44v-0.5H30.424V35.578z"/>
	</g>
</g>
<g>
	<g>
		<rect x="29.674" y="35.328" fill="#6D6B6B" width="1" height="6.431"/>
		<path d="M30.924,42.009h-1.5v-6.931h1.5V42.009z M29.924,41.509h0.5v-5.931h-0.5V41.509z"/>
	</g>
</g>
<g>
	<g>
		<rect x="16.883" y="48.188" fill="#6D6B6B" width="1" height="6.36"/>
		<path d="M18.133,54.799h-1.5v-6.86h1.5V54.799z M17.133,54.299h0.5v-5.86h-0.5V54.299z"/>
	</g>
</g>
<g>
	<g>
		<rect x="17.383" y="60.481" fill="#6D6B6B" width="12.791" height="1"/>
		<path d="M30.424,61.731H17.133v-1.5h13.291V61.731z M17.633,61.231h12.291v-0.5H17.633V61.231z"/>
	</g>
</g>
<g>
	<g>
		<rect x="17.383" y="54.05" fill="#6D6B6B" width="12.791" height="1"/>
		<path d="M30.424,55.3H17.133v-1.5h13.291V55.3z M17.633,54.8h12.291v-0.5H17.633V54.8z"/>
	</g>
</g>
<g>
	<g>
		<rect x="30.174" y="41.259" fill="#6D6B6B" width="38.516" height="1"/>
		<path d="M68.94,42.509H29.924v-1.5H68.94V42.509z M30.424,42.009H68.44v-0.5H30.424V42.009z"/>
	</g>
</g>
<g>
	<g>
		<rect x="55.398" y="54.551" fill="#6D6B6B" width="1" height="6.431"/>
		<path d="M56.648,61.231h-1.5v-6.931h1.5V61.231z M55.648,60.731h0.5v-5.931h-0.5V60.731z"/>
	</g>
</g>
<g>
	<g>
		<rect x="16.883" y="60.981" fill="#6D6B6B" width="1" height="12.861"/>
		<path d="M18.133,74.093h-1.5V60.731h1.5V74.093z M17.133,73.593h0.5V61.231h-0.5V73.593z"/>
	</g>
</g>
</svg>
